<svg width="63" height="63" viewBox="0 0 63 63" fill="none" xmlns="http://www.w3.org/2000/svg">
<path d="M55.8904 44.4848C56.621 42.4006 56.9963 40.2084 57.0004 37.9998C56.9909 34.2902 55.9523 30.656 54.0002 27.5016C52.0481 24.3472 49.259 21.7963 45.9434 20.1328C45.7326 17.9069 44.6993 15.8396 43.0455 14.335C41.3917 12.8304 39.2362 11.9966 37.0004 11.9966C34.7645 11.9966 32.609 12.8304 30.9552 14.335C29.3014 15.8396 28.2681 17.9069 28.0574 20.1328C24.7418 21.7964 21.9528 24.3473 20.0007 27.5017C18.0486 30.6561 17.01 34.2903 17.0004 37.9998C17.0045 40.2087 17.3797 42.4012 18.1104 44.4858C16.6859 44.9681 15.4051 45.7998 14.3851 46.905C13.3651 48.0101 12.6384 49.3533 12.2716 50.8118C11.9048 52.2703 11.9096 53.7975 12.2854 55.2537C12.6613 56.7099 13.3962 58.0486 14.4231 59.1474C15.4499 60.2461 16.7359 61.0699 18.1633 61.5434C19.5907 62.0168 21.1141 62.1248 22.594 61.8574C24.074 61.5901 25.4633 60.9559 26.6349 60.013C27.8064 59.0701 28.7229 57.8484 29.3004 56.4598C31.7402 57.4767 34.3572 58.0002 37.0004 58.0002C39.6436 58.0002 42.2606 57.4767 44.7004 56.4598C45.277 57.8506 46.1934 59.0745 47.3655 60.0195C48.5376 60.9644 49.9281 61.6002 51.4096 61.8686C52.891 62.1371 54.4162 62.0295 55.8454 61.5559C57.2745 61.0823 58.562 60.2577 59.59 59.1576C60.6179 58.0575 61.3535 56.7172 61.7293 55.2592C62.1051 53.8013 62.1091 52.2723 61.741 50.8124C61.3729 49.3525 60.6444 48.0083 59.6223 46.9028C58.6002 45.7973 57.317 44.966 55.8904 44.4848ZM53.9484 44.0478H53.9384C53.6267 44.0159 53.3137 43.9999 53.0004 43.9998C50.6142 44.0024 48.3266 44.9515 46.6393 46.6388C44.9521 48.326 44.003 50.6137 44.0004 52.9998C44.0114 53.5111 44.0551 54.0211 44.1314 54.5268C41.8784 55.4942 39.4522 55.993 37.0004 55.993C34.5485 55.993 32.1223 55.4942 29.8694 54.5268C29.9457 54.0211 29.9895 53.5111 30.0004 52.9998C29.9977 50.6137 29.0487 48.326 27.3614 46.6388C25.6742 44.9515 23.3865 44.0024 21.0004 43.9998C20.6868 43.9995 20.3734 44.0152 20.0614 44.0468H20.0524C19.3531 42.1075 18.9972 40.0613 19.0004 37.9998C19.0071 34.8227 19.852 31.7037 21.4498 28.9576C23.0476 26.2115 25.3417 23.9357 28.1004 22.3598C28.425 24.4868 29.5009 26.4272 31.1331 27.8292C32.7652 29.2312 34.8457 30.0021 36.9974 30.0021C39.149 30.0021 41.2295 29.2312 42.8617 27.8292C44.4939 26.4272 45.5698 24.4868 45.8944 22.3598C48.6542 23.9349 50.9495 26.2104 52.5483 28.9566C54.1472 31.7027 54.993 34.8221 55.0004 37.9998C55.0037 40.0616 54.6477 42.1082 53.9484 44.0478Z" fill="#75D0C8"/>
<path d="M19.9424 17.6698C19.8372 17.4262 19.6396 17.2344 19.393 17.1365C19.1464 17.0386 18.871 17.0427 18.6274 17.1478C18.3838 17.253 18.1919 17.4506 18.094 17.6972C17.9961 17.9438 18.0002 18.2192 18.1054 18.4628C18.6788 19.7836 19.6182 20.9127 20.8127 21.7166C22.0072 22.5206 23.4069 22.9659 24.8464 22.9998H25.1754C26.6108 22.9621 28.0055 22.515 29.1953 21.7112C30.3852 20.9074 31.3206 19.7804 31.8914 18.4628C31.9965 18.2192 32.0006 17.9438 31.9027 17.6972C31.8048 17.4506 31.613 17.253 31.3694 17.1478C31.1258 17.0427 30.8504 17.0386 30.6038 17.1365C30.3571 17.2344 30.1595 17.4262 30.0544 17.6698C29.6387 18.6333 28.9569 19.4583 28.0891 20.0481C27.2212 20.6379 26.2032 20.968 25.1544 20.9998H24.8734C23.8194 20.973 22.7951 20.6452 21.9214 20.0552C21.0477 19.4651 20.361 18.6375 19.9424 17.6698Z" fill="#0B2577"/>
<path d="M41.228 19.863C42.6095 19.1681 43.8203 18.1763 44.7737 16.9587C45.7271 15.7411 46.3995 14.3277 46.7428 12.8199C47.086 11.312 47.0917 9.74689 46.7594 8.23656C46.4271 6.72624 45.765 5.30806 44.8205 4.08355C43.876 2.85904 42.6724 1.85849 41.296 1.15351C39.9196 0.448534 38.4044 0.0565711 36.8587 0.00568221C35.3131 -0.0452067 33.7754 0.246237 32.3556 0.859149C30.9358 1.47206 29.669 2.39128 28.646 3.55101C26.2683 2.83552 23.7327 2.83552 21.355 3.55101C20.3316 2.39172 19.0646 1.47302 17.6446 0.860696C16.2246 0.248372 14.6868 -0.0424327 13.1412 0.00910149C11.5957 0.0606357 10.0807 0.453234 8.70466 1.15879C7.32861 1.86434 6.12558 2.8654 5.18168 4.0903C4.23779 5.31519 3.57638 6.73363 3.24481 8.24405C2.91324 9.75447 2.91971 11.3195 3.26375 12.8271C3.6078 14.3348 4.28091 15.7477 5.23491 16.9647C6.1889 18.1818 7.40017 19.1729 8.782 19.867C6.20686 20.8293 3.98652 22.5543 2.41737 24.8115C0.84821 27.0688 0.00489736 29.7509 0 32.5V39C0 39.2652 0.105357 39.5196 0.292893 39.7071C0.48043 39.8947 0.734784 40 1 40H8.266C8.09018 40.9904 8.00117 41.9942 8 43V49C8 49.2652 8.10536 49.5196 8.29289 49.7071C8.48043 49.8947 8.73478 50 9 50H41C41.2652 50 41.5196 49.8947 41.7071 49.7071C41.8946 49.5196 42 49.2652 42 49V43C41.9988 41.9942 41.9098 40.9904 41.734 40H49C49.2652 40 49.5196 39.8947 49.7071 39.7071C49.8946 39.5196 50 39.2652 50 39V32.5C50.0053 29.7494 49.1673 27.0633 47.5988 24.8038C46.0303 22.5442 43.8068 20.8198 41.228 19.863ZM36.5 2.00001C38.7082 2.00292 40.8287 2.86507 42.4124 4.40396C43.9961 5.94284 44.9187 8.03765 44.985 10.2449C45.0513 12.4521 44.256 14.5985 42.7675 16.2296C41.2789 17.8608 39.2141 18.8486 37.01 18.984C37.3265 17.8494 37.4913 16.6779 37.5 15.5C37.4859 13.1901 36.8388 10.9282 35.6289 8.96043C34.4191 6.99263 32.6929 5.39421 30.638 4.33901C32.2166 2.83158 34.3173 1.9934 36.5 2.00001ZM28.624 5.63901C30.9321 6.48282 32.871 8.10945 34.1033 10.2357C35.3355 12.3618 35.7829 14.8529 35.3677 17.275C34.9524 19.6971 33.7007 21.8969 31.8305 23.4912C29.9604 25.0854 27.5903 25.9733 25.133 26C24.988 26 24.922 26 24.754 26C22.3103 25.9411 19.9636 25.0319 18.1181 23.4291C16.2726 21.8262 15.0437 19.63 14.6432 17.2186C14.2426 14.8073 14.6955 12.3317 15.9237 10.2183C17.1519 8.10483 19.0786 6.4858 21.372 5.64001C23.7149 4.79217 26.2808 4.79181 28.624 5.63901ZM5 10.5C4.99887 8.83604 5.48616 7.20833 6.40146 5.81871C7.31675 4.42908 8.61978 3.33867 10.149 2.68267C11.6782 2.02667 13.3663 1.83394 15.004 2.12838C16.6418 2.42281 18.157 3.19146 19.362 4.33901C17.3063 5.39315 15.5793 6.99132 14.3693 8.95936C13.1593 10.9274 12.5127 13.1898 12.5 15.5C12.509 16.6779 12.6737 17.8494 12.99 18.984C10.8288 18.8517 8.79933 17.9006 7.31486 16.3243C5.83038 14.7481 5.00257 12.6652 5 10.5ZM2 32.5C2.00486 30.9681 2.31472 29.4525 2.9115 28.0415C3.50828 26.6306 4.38003 25.3527 5.4759 24.2822C6.57178 23.2117 7.86984 22.3702 9.29437 21.8067C10.7189 21.2432 12.2414 20.9689 13.773 21C15.0497 23.5618 17.154 25.6175 19.745 26.834C17.1539 27.6833 14.8034 29.1399 12.8897 31.0823C10.976 33.0247 9.5546 35.3965 8.744 38H2V32.5ZM40 48H10V43C10 33.779 18.264 27.458 25.256 28.01C29.1908 28.0684 32.9443 29.6742 35.7038 32.4797C38.4633 35.2853 40.0067 39.0648 40 43V48ZM48 38H41.255C40.445 35.3983 39.0258 33.0275 37.1152 31.0848C35.2045 29.142 32.8578 27.6833 30.27 26.83C32.8513 25.6068 34.9485 23.5543 36.227 21C37.7603 20.9625 39.2856 21.2323 40.713 21.7935C42.1404 22.3547 43.441 23.196 44.5382 24.2677C45.6354 25.3395 46.5069 26.62 47.1015 28.0339C47.696 29.4477 48.0015 30.9663 48 32.5V38Z" fill="#0B2577"/>
</svg>
