<svg width="22" height="22" viewBox="0 0 22 22" fill="none" xmlns="http://www.w3.org/2000/svg">
<path d="M21.0586 17V20C21.0586 20.8273 20.3858 21.5 19.5586 21.5H1.55859C0.731344 21.5 0.0585938 20.8273 0.0585938 20V17C0.0585938 16.586 0.394594 16.25 0.808594 16.25C1.22259 16.25 1.55859 16.586 1.55859 17V20H19.5586V17C19.5586 16.586 19.8946 16.25 20.3086 16.25C20.7226 16.25 21.0586 16.586 21.0586 17Z" fill="white"/>
<path d="M4.77853 11.5303C4.48528 11.237 4.48528 10.763 4.77853 10.4698C5.07178 10.1765 5.54578 10.1765 5.83903 10.4698L9.80878 14.4395V1.25C9.80878 0.836 10.1448 0.5 10.5588 0.5C10.9728 0.5 11.3088 0.836 11.3088 1.25V14.4395L15.2785 10.4698C15.5718 10.1765 16.0458 10.1765 16.339 10.4698C16.6323 10.763 16.6323 11.237 16.339 11.5303L11.089 16.7803C10.792 17.078 10.3158 17.0683 10.0278 16.7803L4.77853 11.5303Z" fill="white"/>
</svg>
