<svg width="60" height="60" viewBox="0 0 60 60" fill="none" xmlns="http://www.w3.org/2000/svg">
<path d="M59.988 32.2892C59.9163 30.6275 58.2905 29.3006 55.1464 28.3442C52.7077 27.615 49.6115 27.1727 46.2642 27.1009V14.3454C46.2522 14.1302 46.1925 13.927 46.0849 13.7477C45.7501 12.3012 44.1363 11.1296 41.2791 10.2689C38.5894 9.45599 35.0747 9.01367 31.3808 9.01367C27.6987 9.01367 24.22 9.45599 21.578 10.2689C19.4142 10.9384 16.8201 12.1816 16.8201 14.3215C16.8201 14.453 16.832 14.5845 16.8559 14.716L16.9874 20.1673C9.21698 18.6849 1.72146 23.7895 0.251046 31.548C0.083682 32.4327 0 33.3173 0 34.2139C0 42.1039 6.41961 48.5235 14.3096 48.5235C17.5971 48.5235 20.777 47.3998 23.3234 45.3197C25.5589 45.8457 28.1889 46.1326 30.9743 46.1565C31.584 49.4679 38.7567 50.9862 45.4393 50.9862C49.1213 50.9862 52.6001 50.5319 55.2421 49.707C57.4059 49.0376 60 47.7823 60 45.6425V32.5164C60 32.4446 60 32.361 59.988 32.2892ZM43.7657 20.9563C43.7657 21.1117 43.1919 21.9366 40.5977 22.7256C38.171 23.4548 34.8117 23.8852 31.3927 23.8852C28.4399 23.8852 25.5469 23.5743 23.2516 22.9886C23.2158 22.9766 23.1919 22.9766 23.156 22.9647C22.0203 22.0681 20.7651 21.3508 19.4142 20.8487L19.3305 17.4775C20.1554 17.8959 21.0161 18.2306 21.9127 18.4697C24.5069 19.2229 27.8661 19.6293 31.3927 19.6293C35.0747 19.6293 38.6013 19.187 41.2911 18.3741C42.1877 18.1111 43.0604 17.7644 43.8852 17.3341V20.4662C43.7537 20.6335 43.7657 20.7889 43.7657 20.9563ZM22.2953 12.5761C24.7101 11.835 27.9378 11.4165 31.3808 11.4165C34.7998 11.4165 38.159 11.835 40.5858 12.5761C43.1799 13.3651 43.7537 14.178 43.7537 14.3335C43.7537 14.5008 43.168 15.3257 40.5738 16.1027C38.147 16.832 34.7998 17.2504 31.3808 17.2504C28.0813 17.2504 24.9492 16.8678 22.5702 16.1745C20 15.4333 19.2827 14.6204 19.223 14.3574C19.223 14.3335 19.211 14.3335 19.211 14.3335C19.223 14.1063 19.7729 13.3412 22.2953 12.5761ZM22.3311 43.0364C17.4656 47.4596 9.9223 47.1129 5.4991 42.2474C1.07591 37.3819 1.42259 29.8385 6.28811 25.4153C8.47579 23.4189 11.3449 22.3191 14.3096 22.3191C15.5051 22.3191 16.6886 22.4984 17.8362 22.8451C21.9845 24.1362 25.1046 27.5791 25.9892 31.823C26.1446 32.612 26.2283 33.4249 26.2283 34.2259C26.2403 37.5851 24.8177 40.777 22.3311 43.0364ZM25.3676 43.2994C26.3359 42.1159 27.113 40.7889 27.6629 39.3663C28.679 39.45 29.731 39.5098 30.8308 39.5217V39.7369L30.9026 43.7895C29.0496 43.7656 27.1967 43.5983 25.3676 43.2994ZM28.5595 32.8033C29.2528 32.8511 29.9821 32.875 30.7233 32.887L30.795 37.1189C29.9582 37.1069 29.1333 37.0711 28.3443 37.0113C28.5236 36.0908 28.6192 35.1464 28.6192 34.2139C28.6192 33.7477 28.5953 33.2815 28.5595 32.8033ZM31.5003 30.508C31.4644 30.508 31.4166 30.508 31.3808 30.508C30.2331 30.508 29.1213 30.4602 28.0932 30.3884C27.639 28.7865 26.9217 27.2803 25.9534 25.9413C27.7466 26.1685 29.5517 26.288 31.3688 26.288C35.0628 26.288 38.5894 25.8457 41.2791 25.0328C42.1757 24.7698 43.0365 24.4231 43.8613 24.0047V27.1368C38.7328 27.2803 33.4608 28.3562 31.5003 30.508ZM33.0783 32.4088C33.0783 32.3968 33.0783 32.3849 33.0903 32.361C33.1978 32.0382 34.0466 31.2492 36.5212 30.5558C38.8404 29.8983 41.8649 29.5397 45.0448 29.5397H45.2481C48.6671 29.5397 52.0143 29.9342 54.4531 30.6754C56.9994 31.4405 57.5971 32.2295 57.6091 32.4088V32.4207C57.5971 32.6 56.9994 33.4249 54.3455 34.2139C51.8948 34.9431 48.6671 35.3376 45.26 35.3376C41.9606 35.3376 38.8285 34.9551 36.4495 34.2737C33.8793 33.5325 33.1739 32.7076 33.1022 32.4566C33.0783 32.4088 33.0783 32.4088 33.0783 32.4088ZM54.5487 47.4357C52.1339 48.1888 48.8942 48.6072 45.4513 48.6072C41.9964 48.6072 38.7687 48.2008 36.3778 47.4715C33.8554 46.6945 33.3293 45.8935 33.3293 45.7142C33.3293 45.7023 33.3293 45.7023 33.3293 45.6903L33.2696 42.2235C34.2259 42.6897 35.2182 43.0483 36.2463 43.3113C38.7567 43.9688 41.9486 44.3394 45.2241 44.3394C48.9181 44.3394 52.4208 43.8971 55.0986 43.0842C55.9713 42.8212 56.8081 42.4745 57.6091 42.0681V45.6544H57.621C57.621 45.8218 57.0711 46.6467 54.5487 47.4357ZM57.633 38.6371H57.621C57.621 38.7566 57.5493 38.9001 57.5493 39.0316C57.5493 39.199 56.9874 40.0119 54.4053 40.8009C51.9546 41.5421 48.691 41.9485 45.2361 41.9485C38.6133 41.9485 34.1542 40.4542 33.2218 39.2946L33.2098 38.2904L33.162 35.5409C33.9988 35.9593 34.8715 36.294 35.7681 36.5451C38.3622 37.2982 41.7215 37.7046 45.2481 37.7046C48.8822 37.7046 52.3491 37.2743 55.0149 36.4853C55.9235 36.2342 56.7962 35.8876 57.633 35.4572V38.6371Z" fill="#000080"/>
<path d="M18.663 35.9112C18.1131 33.9626 16.3319 32.6237 14.3116 32.6237C13.14 32.6237 12.1836 31.6793 12.1836 30.5077C12.1956 29.3242 13.14 28.3798 14.3116 28.3798C15.4831 28.3798 16.4395 29.3362 16.4395 30.5077C16.4395 31.1652 16.9774 31.7032 17.6349 31.7032C18.2924 31.7032 18.8304 31.1652 18.8304 30.5077C18.8304 28.4874 17.4915 26.7062 15.5429 26.1563V25.6183C15.5429 24.9608 15.0049 24.4229 14.3474 24.4229C13.6899 24.4229 13.152 24.9608 13.152 25.6183V26.1324C10.7491 26.7779 9.31455 29.2525 9.9601 31.6554C10.4861 33.6279 12.2673 35.0026 14.3116 35.0026C15.4831 35.0026 16.4395 35.9471 16.4395 37.1186C16.4395 38.2902 15.4951 39.2465 14.3235 39.2465C13.152 39.2465 12.1956 38.3021 12.1956 37.1306C12.1956 36.4731 11.6576 35.9351 11.0001 35.9351C10.3426 35.9351 9.80469 36.4731 9.80469 37.1306C9.81664 39.1748 11.1795 40.956 13.152 41.494V42.534C13.152 43.1915 13.6899 43.7295 14.3474 43.7295C15.0049 43.7295 15.5429 43.1915 15.5429 42.534V41.482C17.9458 40.8006 19.3444 38.3141 18.663 35.9112Z" fill="#000080"/>
</svg>
