<svg width="62" height="61" viewBox="0 0 62 61" fill="none" xmlns="http://www.w3.org/2000/svg">
<path d="M59 19H27C26.2046 19.0009 25.4421 19.3172 24.8796 19.8796C24.3172 20.4421 24.0009 21.2046 24 22V58C24.0009 58.7954 24.3172 59.5579 24.8796 60.1204C25.4421 60.6828 26.2046 60.9991 27 61H59C59.7954 60.9991 60.5579 60.6828 61.1204 60.1204C61.6828 59.5579 61.9991 58.7954 62 58V22C61.9991 21.2046 61.6828 20.4421 61.1204 19.8796C60.5579 19.3172 59.7954 19.0009 59 19ZM38 29H42V25C42 24.7348 42.1054 24.4804 42.2929 24.2929C42.4804 24.1054 42.7348 24 43 24C43.2652 24 43.5196 24.1054 43.7071 24.2929C43.8946 24.4804 44 24.7348 44 25V29H48C48.2652 29 48.5196 29.1054 48.7071 29.2929C48.8946 29.4804 49 29.7348 49 30C49 30.2652 48.8946 30.5196 48.7071 30.7071C48.5196 30.8946 48.2652 31 48 31H44V35C44 35.2652 43.8946 35.5196 43.7071 35.7071C43.5196 35.8946 43.2652 36 43 36C42.7348 36 42.4804 35.8946 42.2929 35.7071C42.1054 35.5196 42 35.2652 42 35V31H38C37.7348 31 37.4804 30.8946 37.2929 30.7071C37.1054 30.5196 37 30.2652 37 30C37 29.7348 37.1054 29.4804 37.2929 29.2929C37.4804 29.1054 37.7348 29 38 29ZM34 56H29C28.7348 56 28.4804 55.8946 28.2929 55.7071C28.1054 55.5196 28 55.2652 28 55C28 54.7348 28.1054 54.4804 28.2929 54.2929C28.4804 54.1054 28.7348 54 29 54H34C34.2652 54 34.5196 54.1054 34.7071 54.2929C34.8946 54.4804 35 54.7348 35 55C35 55.2652 34.8946 55.5196 34.7071 55.7071C34.5196 55.8946 34.2652 56 34 56ZM34 46H29C28.7348 46 28.4804 45.8946 28.2929 45.7071C28.1054 45.5196 28 45.2652 28 45C28 44.7348 28.1054 44.4804 28.2929 44.2929C28.4804 44.1054 28.7348 44 29 44H34C34.2652 44 34.5196 44.1054 34.7071 44.2929C34.8946 44.4804 35 44.7348 35 45C35 45.2652 34.8946 45.5196 34.7071 45.7071C34.5196 45.8946 34.2652 46 34 46ZM34 41H29C28.7348 41 28.4804 40.8946 28.2929 40.7071C28.1054 40.5196 28 40.2652 28 40C28 39.7348 28.1054 39.4804 28.2929 39.2929C28.4804 39.1054 28.7348 39 29 39H34C34.2652 39 34.5196 39.1054 34.7071 39.2929C34.8946 39.4804 35 39.7348 35 40C35 40.2652 34.8946 40.5196 34.7071 40.7071C34.5196 40.8946 34.2652 41 34 41ZM57 56H38C37.7348 56 37.4804 55.8946 37.2929 55.7071C37.1054 55.5196 37 55.2652 37 55C37 54.7348 37.1054 54.4804 37.2929 54.2929C37.4804 54.1054 37.7348 54 38 54H57C57.2652 54 57.5196 54.1054 57.7071 54.2929C57.8946 54.4804 58 54.7348 58 55C58 55.2652 57.8946 55.5196 57.7071 55.7071C57.5196 55.8946 57.2652 56 57 56ZM57 51H38C37.7348 51 37.4804 50.8946 37.2929 50.7071C37.1054 50.5196 37 50.2652 37 50C37 49.7348 37.1054 49.4804 37.2929 49.2929C37.4804 49.1054 37.7348 49 38 49H57C57.2652 49 57.5196 49.1054 57.7071 49.2929C57.8946 49.4804 58 49.7348 58 50C58 50.2652 57.8946 50.5196 57.7071 50.7071C57.5196 50.8946 57.2652 51 57 51ZM57 46H38C37.7348 46 37.4804 45.8946 37.2929 45.7071C37.1054 45.5196 37 45.2652 37 45C37 44.7348 37.1054 44.4804 37.2929 44.2929C37.4804 44.1054 37.7348 44 38 44H57C57.2652 44 57.5196 44.1054 57.7071 44.2929C57.8946 44.4804 58 44.7348 58 45C58 45.2652 57.8946 45.5196 57.7071 45.7071C57.5196 45.8946 57.2652 46 57 46ZM57 41H38C37.7348 41 37.4804 40.8946 37.2929 40.7071C37.1054 40.5196 37 40.2652 37 40C37 39.7348 37.1054 39.4804 37.2929 39.2929C37.4804 39.1054 37.7348 39 38 39H57C57.2652 39 57.5196 39.1054 57.7071 39.2929C57.8946 39.4804 58 39.7348 58 40C58 40.2652 57.8946 40.5196 57.7071 40.7071C57.5196 40.8946 57.2652 41 57 41Z" fill="#75D0C8"/>
<path d="M21.7221 23.1933C21.9774 22.9282 22.0761 22.8867 23.0404 23.3871C23.626 23.7433 24.2884 23.9541 24.9721 24.0019C25.3042 23.9976 25.6317 23.9234 25.9332 23.7841C26.2348 23.6448 26.5036 23.4435 26.7221 23.1933C26.9054 23.002 27.0053 22.7459 27 22.481C26.9946 22.2161 26.8844 21.9642 26.6934 21.7806C26.5025 21.5969 26.2465 21.4965 25.9817 21.5014C25.7168 21.5062 25.4647 21.616 25.2807 21.8066C25.0253 22.0722 24.9277 22.1137 23.9623 21.6127C23.5383 21.3099 23.0451 21.1181 22.5278 21.0551C22.0105 20.9921 21.4857 21.0598 21.0014 21.2519C20.5168 21.0607 19.9922 20.9936 19.4751 21.0566C18.958 21.1196 18.4649 21.3108 18.0404 21.6128C17.0761 22.1148 16.9774 22.0728 16.7221 21.8066C16.6311 21.7117 16.5223 21.6356 16.4019 21.5828C16.2814 21.53 16.1518 21.5014 16.0203 21.4988C15.8889 21.4961 15.7582 21.5194 15.6357 21.5673C15.5133 21.6152 15.4015 21.6868 15.3067 21.7779C15.212 21.8691 15.1361 21.9781 15.0835 22.0986C15.0309 22.2191 15.0026 22.3488 15.0002 22.4802C14.9977 22.6117 15.0213 22.7424 15.0694 22.8647C15.1175 22.9871 15.1893 23.0988 15.2807 23.1933C16.6317 24.5981 18.0907 23.8398 18.9623 23.3872C19.9276 22.8867 20.0258 22.9287 20.2807 23.1933C20.4733 23.3816 20.732 23.487 21.0014 23.487C21.2707 23.487 21.5294 23.3816 21.7221 23.1933Z" fill="#0B2577"/>
<path d="M31 26.9999H28.1739C30.8056 25.4296 32.8493 23.039 33.9914 20.1952C35.1336 17.3514 35.311 14.2113 34.4965 11.2569C33.682 8.3025 31.9206 5.69696 29.4826 3.8401C27.0446 1.98324 24.0646 0.977661 21 0.977661C17.9354 0.977661 14.9554 1.98324 12.5174 3.8401C10.0794 5.69696 8.31796 8.3025 7.50348 11.2569C6.689 14.2113 6.86644 17.3514 8.00857 20.1952C9.1507 23.039 11.1944 25.4296 13.8261 26.9999H11C8.08363 27.0032 5.28765 28.1632 3.22546 30.2254C1.16328 32.2876 0.00329521 35.0836 0 37.9999V49.9999C0 50.2652 0.105357 50.5195 0.292893 50.7071C0.48043 50.8946 0.734784 50.9999 1 50.9999H41C41.2652 50.9999 41.5196 50.8946 41.7071 50.7071C41.8946 50.5195 42 50.2652 42 49.9999V37.9999C41.9967 35.0836 40.8367 32.2876 38.7745 30.2254C36.7123 28.1632 33.9164 27.0032 31 26.9999ZM21 2.99994C22.8944 3.0017 24.7614 3.45267 26.4477 4.31583C28.1341 5.179 29.5917 6.42977 30.7009 7.96546C29.051 8.0708 27.3972 7.82989 25.8459 7.25821C24.2946 6.68654 22.8799 5.79673 21.6929 4.64594C21.5066 4.4669 21.2583 4.36689 21 4.36689C20.7417 4.36689 20.4934 4.4669 20.3071 4.64594C19.1201 5.79679 17.7055 6.68663 16.1541 7.25831C14.6028 7.82999 12.949 8.07086 11.2991 7.96546C12.4083 6.42977 13.8659 5.179 15.5523 4.31583C17.2386 3.45267 19.1056 3.0017 21 2.99994ZM10.1731 9.85981C12.0977 10.126 14.0567 9.98321 15.9224 9.44078C17.788 8.89834 19.5182 7.96846 21 6.71185C22.4817 7.96868 24.2119 8.89871 26.0775 9.44115C27.9432 9.9836 29.9023 10.1263 31.8269 9.85981C32.449 11.1604 32.8294 12.5632 32.9493 13.9999H29.858C29.64 13.1421 29.1423 12.3815 28.4436 11.8381C27.7449 11.2948 26.8851 10.9998 26 10.9998C25.1149 10.9998 24.2551 11.2948 23.5564 11.8381C22.8577 12.3815 22.36 13.1421 22.142 13.9999H19.858C19.64 13.1421 19.1423 12.3815 18.4436 11.8381C17.7449 11.2948 16.8851 10.9998 16 10.9998C15.1149 10.9998 14.2551 11.2948 13.5564 11.8381C12.8577 12.3815 12.36 13.1421 12.142 13.9999H9.05066C9.17062 12.5632 9.55096 11.1604 10.1731 9.85981ZM28 14.9999C28 15.3955 27.8827 15.7822 27.6629 16.1111C27.4432 16.44 27.1308 16.6963 26.7654 16.8477C26.3999 16.9991 25.9978 17.0387 25.6098 16.9615C25.2219 16.8843 24.8655 16.6939 24.5858 16.4142C24.3061 16.1345 24.1156 15.7781 24.0384 15.3901C23.9613 15.0022 24.0009 14.6 24.1522 14.2346C24.3036 13.8691 24.56 13.5568 24.8889 13.337C25.2178 13.1172 25.6044 12.9999 26 12.9999C26.5303 13.0005 27.0387 13.2114 27.4136 13.5863C27.7886 13.9613 27.9995 14.4697 28 14.9999ZM18 14.9999C18 15.3955 17.8827 15.7822 17.6629 16.1111C17.4432 16.44 17.1308 16.6963 16.7654 16.8477C16.3999 16.9991 15.9978 17.0387 15.6098 16.9615C15.2219 16.8843 14.8655 16.6939 14.5858 16.4142C14.3061 16.1345 14.1156 15.7781 14.0384 15.3901C13.9613 15.0022 14.0009 14.6 14.1522 14.2346C14.3036 13.8691 14.56 13.5568 14.8889 13.337C15.2178 13.1172 15.6044 12.9999 16 12.9999C16.5303 13.0005 17.0387 13.2114 17.4136 13.5863C17.7886 13.9613 17.9995 14.4697 18 14.9999ZM9.05066 15.9999H12.142C12.36 16.8578 12.8577 17.6184 13.5564 18.1618C14.2551 18.7051 15.1149 19 16 19C16.8851 19 17.7449 18.7051 18.4436 18.1618C19.1423 17.6184 19.64 16.8578 19.858 15.9999H22.142C22.36 16.8578 22.8577 17.6184 23.5564 18.1618C24.2551 18.7051 25.1149 19 26 19C26.8851 19 27.7449 18.7051 28.4436 18.1618C29.1423 17.6184 29.64 16.8578 29.858 15.9999H32.9494C32.7009 18.9983 31.3343 21.7936 29.1208 23.8312C26.9073 25.8689 24.0086 26.9999 21 26.9999C17.9914 26.9999 15.0928 25.8689 12.8793 23.8312C10.6658 21.7936 9.29919 18.9983 9.05069 15.9999H9.05066ZM24.1957 28.9999L21 34.1132L17.8043 28.9999H24.1957ZM9 48.9999H2V37.9999C2.00345 35.9622 2.69748 33.9859 3.9688 32.3934C5.24013 30.8009 7.01368 29.6864 9 29.2317V48.9999ZM31 48.9999H11V28.9999H15.4457L20.1519 36.5297C20.2418 36.6735 20.3669 36.7921 20.5152 36.8742C20.6636 36.9564 20.8304 36.9995 21 36.9995C21.1696 36.9995 21.3364 36.9564 21.4848 36.8742C21.6331 36.7921 21.7582 36.6735 21.8481 36.5297L26.5543 28.9999H31V48.9999ZM40 48.9999H33V29.2317C34.9863 29.6864 36.7599 30.8009 38.0312 32.3934C39.3025 33.9859 39.9965 35.9622 40 37.9999V48.9999Z" fill="#0B2577"/>
</svg>
