<svg width="62" height="62" viewBox="0 0 62 62" fill="none" xmlns="http://www.w3.org/2000/svg">
<path d="M61.6512 40.241L40.6512 22.2405C40.47 22.085 40.2391 21.9995 40.0003 21.9995C39.7616 21.9995 39.5307 22.085 39.3494 22.2405L18.3494 40.241C18.1949 40.3742 18.0847 40.5514 18.0337 40.749C17.9827 40.9466 17.9933 41.155 18.0642 41.3464C18.135 41.5377 18.2626 41.7029 18.4299 41.8197C18.5973 41.9364 18.7963 41.9993 19.0003 41.9998H23.0003V59.9998H22.0003C21.7351 59.9998 21.4808 60.1051 21.2932 60.2927C21.1057 60.4802 21.0003 60.7345 21.0003 60.9998C21.0003 61.265 21.1057 61.5193 21.2932 61.7069C21.4808 61.8944 21.7351 61.9998 22.0003 61.9998H33.0003V55.1228C31.7458 54.0968 30.7358 52.804 30.0439 51.3385C29.3519 49.873 28.9954 48.2717 29.0003 46.6511C29.0054 44.7226 29.5158 42.8292 30.4807 41.1594C31.4455 39.4897 32.8311 38.1019 34.4993 37.1345C34.6513 37.0467 34.8238 37.0004 34.9994 37.0003C35.1749 37.0002 35.3474 37.0463 35.4995 37.134C35.6516 37.2217 35.778 37.3478 35.8659 37.4998C35.9538 37.6518 36.0001 37.8242 36.0003 37.9998V46.0789L40.0003 48.4802L44.0003 46.0789V37.9998C44.0005 37.8242 44.0469 37.6518 44.1348 37.4999C44.2228 37.3479 44.3491 37.2218 44.5012 37.1341C44.6533 37.0464 44.8258 37.0003 45.0013 37.0004C45.1769 37.0005 45.3493 37.0467 45.5013 37.1345C47.1696 38.102 48.5552 39.4897 49.52 41.1595C50.4848 42.8292 50.9952 44.7227 51.0003 46.6511C51.0052 48.2718 50.6487 49.8731 49.9568 51.3386C49.2649 52.8041 48.2549 54.0968 47.0003 55.1228V61.9998H58.0003C58.2655 61.9998 58.5199 61.8944 58.7074 61.7069C58.895 61.5193 59.0003 61.265 59.0003 60.9998C59.0003 60.7345 58.895 60.4802 58.7074 60.2927C58.5199 60.1051 58.2655 59.9998 58.0003 59.9998H57.0003V41.9998H61.0003C61.2044 41.9993 61.4034 41.9364 61.5707 41.8196C61.738 41.7029 61.8656 41.5377 61.9365 41.3464C62.0073 41.155 62.0179 40.9466 61.9669 40.749C61.9159 40.5514 61.8058 40.3742 61.6512 40.241V40.241Z" fill="#75D0C8"/>
<path d="M46 39.9561V46.6455C46.0001 46.8182 45.9554 46.9879 45.8704 47.1382C45.7853 47.2885 45.6628 47.4141 45.5147 47.5029L40.5147 50.5039C40.3591 50.5969 40.1813 50.646 40 50.646C39.8188 50.646 39.6409 50.5969 39.4854 50.5039L34.4854 47.5029C34.3373 47.4141 34.2147 47.2885 34.1297 47.1382C34.0446 46.9879 33.9999 46.8182 34 46.6455V39.9561C33.0588 40.7996 32.3054 41.8315 31.7886 42.9849C31.2718 44.1383 31.0031 45.3875 31 46.6514C30.9966 48.0476 31.3207 49.4251 31.9462 50.6734C32.5716 51.9216 33.4811 53.0058 34.6016 53.8389C34.7254 53.932 34.8259 54.0526 34.895 54.1913C34.9642 54.3299 35.0001 54.4828 35 54.6377V62H45V54.6377C44.9999 54.4828 45.0359 54.3299 45.105 54.1913C45.1742 54.0526 45.2746 53.932 45.3985 53.8389C46.5189 53.0058 47.4284 51.9216 48.0539 50.6734C48.6794 49.4251 49.0034 48.0476 49 46.6514C48.9969 45.3875 48.7283 44.1383 48.2115 42.9849C47.6946 41.8315 46.9412 40.7996 46 39.9561Z" fill="#75D0C8"/>
<path d="M49.2427 20.0298L46.2237 19.2754C45.7308 17.4445 45.0013 15.6857 44.0538 14.0435L45.6563 11.3726C45.7712 11.1813 45.8188 10.9572 45.7915 10.7358C45.7643 10.5144 45.6637 10.3085 45.5059 10.1509L39.8491 4.49414C39.6912 4.3368 39.4853 4.23659 39.2641 4.20936C39.0428 4.18212 38.8188 4.22941 38.6274 4.34375L35.9565 5.94629C34.3143 4.99864 32.5555 4.26919 30.7246 3.77637L29.9702 0.75737C29.9161 0.541042 29.7912 0.349014 29.6154 0.211792C29.4396 0.0745697 29.223 2.49393e-05 29 0H21C20.777 2.21479e-05 20.5604 0.0745598 20.3846 0.211772C20.2088 0.348984 20.084 0.541001 20.0298 0.75732L19.2754 3.77637C17.4445 4.26919 15.6857 4.99864 14.0435 5.94629L11.3726 4.34375C11.1812 4.22947 10.9572 4.18221 10.7359 4.20945C10.5147 4.23668 10.3088 4.33686 10.1509 4.49414L4.49414 10.1509C4.33633 10.3085 4.2358 10.5144 4.20854 10.7358C4.18129 10.9572 4.22888 11.1813 4.34375 11.3726L5.94629 14.0435C4.99873 15.6857 4.26928 17.4445 3.77637 19.2754L0.75737 20.0298C0.541042 20.0839 0.349014 20.2088 0.211792 20.3846C0.0745697 20.5604 2.49393e-05 20.777 0 21V29C2.21479e-05 29.223 0.0745598 29.4396 0.211772 29.6154C0.348984 29.7912 0.541001 29.916 0.75732 29.9702L3.77637 30.7246C4.26931 32.5556 4.99876 34.3145 5.94629 35.957L4.34375 38.6279C4.22888 38.8191 4.18129 39.0433 4.20854 39.2646C4.2358 39.486 4.33633 39.6919 4.49414 39.8496L10.1509 45.5058C10.3083 45.6639 10.5143 45.7647 10.7358 45.792C10.9572 45.8192 11.1815 45.7714 11.3726 45.6562L14.0435 44.0537C15.6856 45.0014 17.4445 45.7309 19.2754 46.2236L20.0298 49.2422C20.0838 49.4586 20.2087 49.6507 20.3845 49.788C20.5603 49.9254 20.7769 50 21 50H29C29.2231 50 29.4397 49.9254 29.6155 49.7881C29.7913 49.6507 29.9162 49.4586 29.9702 49.2422L30.7246 46.2236C32.5555 45.7309 34.3144 45.0015 35.9565 44.0537L38.6274 45.6562C38.8188 45.7708 39.0428 45.8182 39.2641 45.7909C39.4854 45.7637 39.6913 45.6634 39.8491 45.5059L45.5059 39.8496C45.6637 39.692 45.7642 39.4861 45.7915 39.2647C45.8187 39.0433 45.7711 38.8191 45.6562 38.6279L44.0537 35.957C45.0012 34.3145 45.7307 32.5556 46.2236 30.7246L49.2427 29.9702C49.459 29.916 49.651 29.7911 49.7882 29.6154C49.9254 29.4396 50 29.223 50 29V21C50 20.777 49.9254 20.5604 49.7882 20.3846C49.651 20.2088 49.459 20.084 49.2427 20.0298V20.0298ZM48 28.2192L45.1592 28.9292C44.9817 28.9736 44.8198 29.0658 44.691 29.1958C44.5623 29.3258 44.4717 29.4886 44.4292 29.6665C43.9413 31.7038 43.1337 33.651 42.0366 35.4356C41.9408 35.5916 41.8897 35.7708 41.8887 35.9539C41.8878 36.1369 41.9371 36.3167 42.0312 36.4737L43.5395 38.9873L38.9873 43.54L36.4736 42.0312C36.3166 41.9373 36.1369 41.8881 35.9539 41.889C35.7709 41.8899 35.5917 41.9407 35.4356 42.0361C33.6514 43.1338 31.7043 43.9414 29.667 44.4287C29.4889 44.4713 29.326 44.5619 29.1959 44.6907C29.0658 44.8195 28.9736 44.9816 28.9292 45.1592L28.2192 48H21.7808L21.0708 45.1592C21.0264 44.9816 20.9342 44.8195 20.8041 44.6907C20.674 44.5619 20.511 44.4713 20.333 44.4287C18.2956 43.9414 16.3485 43.1339 14.5644 42.0361C14.4085 41.9401 14.2292 41.8888 14.0461 41.8879C13.8629 41.8871 13.6831 41.9367 13.5263 42.0312L11.0127 43.54L6.46045 38.9873L7.96875 36.4736C8.06292 36.3167 8.11221 36.1369 8.11126 35.9538C8.11032 35.7708 8.05917 35.5915 7.96338 35.4356C6.86624 33.651 6.0587 31.7038 5.5708 29.6665C5.52824 29.4886 5.43766 29.3258 5.30895 29.1958C5.18023 29.0658 5.0183 28.9736 4.8408 28.9293L2 28.2192V21.7808L4.84082 21.0708C5.01832 21.0264 5.18025 20.9342 5.30897 20.8042C5.43768 20.6742 5.52826 20.5114 5.57082 20.3335C6.05864 18.296 6.86617 16.3487 7.96338 14.564C8.05898 14.408 8.10998 14.2288 8.11084 14.0459C8.1117 13.8629 8.06239 13.6833 7.96826 13.5264L6.46045 11.0132L11.0127 6.46045L13.5269 7.96875C13.6839 8.0628 13.8636 8.11203 14.0466 8.11108C14.2297 8.11013 14.4089 8.05905 14.5649 7.96338C16.3494 6.86632 18.2964 6.05879 20.3335 5.5708C20.5114 5.52824 20.6743 5.43766 20.8043 5.30895C20.9343 5.18023 21.0265 5.0183 21.0708 4.8408L21.7808 2H28.2192L28.9292 4.84082C28.9736 5.01832 29.0658 5.18025 29.1958 5.30897C29.3258 5.43768 29.4886 5.52826 29.6665 5.57082C31.7036 6.05881 33.6506 6.86634 35.4351 7.9634C35.5911 8.05907 35.7704 8.11016 35.9534 8.1111C36.1364 8.11205 36.3162 8.06282 36.4732 7.96877L38.9873 6.46047L43.5396 11.0132L42.0318 13.5264C41.9377 13.6833 41.8883 13.8629 41.8892 14.0459C41.8901 14.2288 41.9411 14.408 42.0367 14.564C43.1339 16.3487 43.9414 18.296 44.4292 20.3335C44.4718 20.5114 44.5623 20.6743 44.6911 20.8043C44.8198 20.9343 44.9817 21.0265 45.1592 21.0708L48 21.7808L48 28.2192Z" fill="#000080"/>
<path d="M25 8C21.6377 8 18.3509 8.99703 15.5553 10.865C12.7597 12.733 10.5807 15.388 9.29406 18.4944C8.00737 21.6007 7.67071 25.0189 8.32666 28.3165C8.98261 31.6142 10.6017 34.6433 12.9792 37.0208C15.3567 39.3983 18.3858 41.0174 21.6835 41.6734C24.9811 42.3293 28.3993 41.9926 31.5056 40.706C34.612 39.4193 37.267 37.2403 39.135 34.4447C41.003 31.6491 42 28.3623 42 25C41.995 20.4929 40.2023 16.1718 37.0153 12.9847C33.8282 9.79771 29.5071 8.00503 25 8V8ZM25 40C22.0333 40 19.1332 39.1203 16.6665 37.472C14.1997 35.8238 12.2771 33.4811 11.1418 30.7403C10.0065 27.9994 9.70945 24.9834 10.2882 22.0736C10.867 19.1639 12.2956 16.4912 14.3934 14.3934C16.4912 12.2956 19.1639 10.867 22.0737 10.2882C24.9834 9.70944 27.9994 10.0065 30.7403 11.1418C33.4812 12.2771 35.8238 14.1997 37.4721 16.6664C39.1203 19.1332 40 22.0333 40 25C39.9956 28.9769 38.4138 32.7896 35.6017 35.6017C32.7896 38.4138 28.9769 39.9956 25 40Z" fill="#000080"/>
<path d="M27.1045 23.9585C26.7065 23.8178 26.298 23.6694 25.8921 23.5139V17.3854C26.5638 17.4954 27.1968 17.7731 27.7325 18.1929C27.9281 18.372 28.1868 18.466 28.4518 18.4544C28.7167 18.4427 28.9662 18.3262 29.1453 18.1306C29.3244 17.935 29.4185 17.6763 29.4068 17.4113C29.3951 17.1463 29.2787 16.8969 29.083 16.7178C28.1739 15.9649 27.0651 15.4931 25.8921 15.3603V14C25.8921 13.7348 25.7868 13.4804 25.5992 13.2929C25.4117 13.1054 25.1573 13 24.8921 13C24.6269 13 24.3726 13.1054 24.185 13.2929C23.9975 13.4804 23.8921 13.7348 23.8921 14V15.4371C22.9131 15.5906 22.007 16.0475 21.3014 16.7433C20.5958 17.439 20.1263 18.3387 19.959 19.3154C19.7886 20.0529 19.8239 20.8229 20.061 21.5417C20.2981 22.2604 20.728 22.9003 21.3037 23.3916C22.1011 23.9874 22.9708 24.4795 23.8921 24.8562V32.4856C22.8156 32.46 21.7745 32.096 20.9165 31.4453C20.6946 31.3001 20.424 31.2491 20.1644 31.3034C19.9048 31.3577 19.6774 31.5129 19.5322 31.7349C19.3871 31.9568 19.336 32.2274 19.3903 32.487C19.4446 32.7466 19.5998 32.974 19.8218 33.1191C21.006 33.9818 22.4272 34.4588 23.8921 34.4851V36C23.8921 36.2652 23.9975 36.5196 24.185 36.7071C24.3725 36.8946 24.6269 37 24.8921 37C25.1573 37 25.4117 36.8946 25.5992 36.7071C25.7867 36.5196 25.8921 36.2652 25.8921 36V34.4099C27.0638 34.2055 28.1426 33.6408 28.9782 32.7944C29.8139 31.9481 30.3648 30.8622 30.5542 29.688C30.7862 28.4757 30.5624 27.2205 29.9258 26.1631C29.2891 25.1057 28.2845 24.3207 27.1045 23.9585V23.9585ZM23.8921 22.6456C23.4154 22.4138 22.9619 22.1368 22.5381 21.8184C22.2526 21.5517 22.0447 21.2125 21.9366 20.837C21.8285 20.4615 21.8243 20.0637 21.9244 19.686C22.0057 19.17 22.2348 18.6886 22.5841 18.3001C22.9333 17.9117 23.3876 17.6327 23.8921 17.4971V22.6456ZM28.5821 29.3564C28.4645 30.0597 28.1491 30.7149 27.6728 31.2454C27.1964 31.7759 26.5787 32.1597 25.8921 32.3519V25.6462C27.6205 26.277 28.9489 27.1746 28.5821 29.3564Z" fill="#000080"/>
</svg>
