<svg width="28" height="28" viewBox="0 0 28 28" fill="none" xmlns="http://www.w3.org/2000/svg">
<path d="M28 22V26C28 27.103 27.103 28 26 28H2C0.897 28 0 27.103 0 26V22C0 21.448 0.448 21 1 21C1.552 21 2 21.448 2 22V26H26V22C26 21.448 26.448 21 27 21C27.552 21 28 21.448 28 22Z" fill="#75D0C8"/>
<path d="M6.29325 14.707C5.90225 14.316 5.90225 13.684 6.29325 13.293C6.68425 12.902 7.31625 12.902 7.70725 13.293L13.0002 18.586V1C13.0002 0.448 13.4482 0 14.0002 0C14.5522 0 15.0002 0.448 15.0002 1V18.586L20.2932 13.293C20.6842 12.902 21.3163 12.902 21.7073 13.293C22.0983 13.684 22.0983 14.316 21.7073 14.707L14.7073 21.707C14.3113 22.104 13.6762 22.091 13.2922 21.707L6.29325 14.707Z" fill="#75D0C8"/>
</svg>
