<svg width="10" height="16" viewBox="0 0 10 16" fill="none" xmlns="http://www.w3.org/2000/svg">
<path d="M6.06371 16H3.49644C3.06763 16 2.7188 15.6519 2.7188 15.2239V9.44458H1.221C0.792185 9.44458 0.443359 9.09631 0.443359 8.66846V6.19202C0.443359 5.76404 0.792185 5.41589 1.221 5.41589H2.7188V4.17578C2.7188 2.94617 3.10566 1.90002 3.83744 1.15063C4.57252 0.397827 5.59979 0 6.80821 0L8.76613 0.00317381C9.19422 0.00390625 9.54243 0.352051 9.54243 0.779297V3.07861C9.54243 3.50659 9.19373 3.85474 8.76503 3.85474L7.44678 3.85523C7.04475 3.85523 6.94238 3.93567 6.92049 3.96033C6.88441 4.00122 6.84148 4.11682 6.84148 4.43604V5.41577H8.66596C8.80332 5.41577 8.93639 5.44959 9.05075 5.51331C9.29744 5.65088 9.45082 5.91101 9.45082 6.19214L9.44984 8.66858C9.44984 9.09631 9.10102 9.44446 8.6722 9.44446H6.84148V15.2239C6.84148 15.6519 6.49253 16 6.06371 16ZM3.65862 15.062H5.90153V9.02466C5.90153 8.73889 6.13453 8.50647 6.42073 8.50647H8.51002L8.51087 6.35388H6.42061C6.13441 6.35388 5.90153 6.12146 5.90153 5.83569V4.43604C5.90153 4.06958 5.93883 3.65283 6.21599 3.3396C6.55087 2.96094 7.07863 2.91724 7.44654 2.91724L8.60261 2.91675V0.940918L6.80747 0.937988C4.86545 0.937988 3.65862 2.17871 3.65862 4.17578V5.83569C3.65862 6.12134 3.42575 6.35388 3.13954 6.35388H1.38318V8.50647H3.13954C3.42575 8.50647 3.65862 8.73889 3.65862 9.02466V15.062ZM8.7643 0.941162H8.76442H8.7643Z" fill="#2B2B2B"/>
</svg>
