<svg width="64" height="64" viewBox="0 0 64 64" fill="none" xmlns="http://www.w3.org/2000/svg">
<path d="M62 54.0014H34C32.896 54.0014 32 53.1054 32 52.0014C32 50.8974 32 13.1054 32 12.0014C32 10.8974 32.896 10.0014 34 10.0014H62C63.104 10.0014 64 10.8974 64 12.0014V52.0014C64 53.1054 63.104 54.0014 62 54.0014Z" fill="#ECEFF1"/>
<path d="M42 22.0014H34C32.896 22.0014 32 21.1054 32 20.0014C32 18.8974 32.896 18.0014 34 18.0014H42C43.104 18.0014 44 18.8974 44 20.0014C44 21.1054 43.104 22.0014 42 22.0014Z" fill="#0B2577"/>
<path d="M42 30.0014H34C32.896 30.0014 32 29.1054 32 28.0014C32 26.8974 32.896 26.0014 34 26.0014H42C43.104 26.0014 44 26.8974 44 28.0014C44 29.1054 43.104 30.0014 42 30.0014Z" fill="#0B2577"/>
<path d="M42 38.0014H34C32.896 38.0014 32 37.1054 32 36.0014C32 34.8974 32.896 34.0014 34 34.0014H42C43.104 34.0014 44 34.8974 44 36.0014C44 37.1054 43.104 38.0014 42 38.0014Z" fill="#0B2577"/>
<path d="M42 46.0014H34C32.896 46.0014 32 45.1054 32 44.0014C32 42.8974 32.896 42.0014 34 42.0014H42C43.104 42.0014 44 42.8974 44 44.0014C44 45.1054 43.104 46.0014 42 46.0014Z" fill="#0B2577"/>
<path d="M54 22.0014H50C48.896 22.0014 48 21.1054 48 20.0014C48 18.8974 48.896 18.0014 50 18.0014H54C55.104 18.0014 56 18.8974 56 20.0014C56 21.1054 55.104 22.0014 54 22.0014Z" fill="#0B2577"/>
<path d="M54 30.0014H50C48.896 30.0014 48 29.1054 48 28.0014C48 26.8974 48.896 26.0014 50 26.0014H54C55.104 26.0014 56 26.8974 56 28.0014C56 29.1054 55.104 30.0014 54 30.0014Z" fill="#0B2577"/>
<path d="M54 38.0014H50C48.896 38.0014 48 37.1054 48 36.0014C48 34.8974 48.896 34.0014 50 34.0014H54C55.104 34.0014 56 34.8974 56 36.0014C56 37.1054 55.104 38.0014 54 38.0014Z" fill="#0B2577"/>
<path d="M54 46.0014H50C48.896 46.0014 48 45.1054 48 44.0014C48 42.8974 48.896 42.0014 50 42.0014H54C55.104 42.0014 56 42.8974 56 44.0014C56 45.1054 55.104 46.0014 54 46.0014Z" fill="#0B2577"/>
<path d="M35.276 2.46138C34.82 2.08138 34.208 1.91738 33.632 2.03738L1.632 8.03738C0.684 8.21338 0 9.03738 0 10.0014V54.0014C0 54.9614 0.684 55.7894 1.632 55.9654L33.632 61.9654C33.752 61.9894 33.876 62.0014 34 62.0014C34.464 62.0014 34.916 61.8414 35.276 61.5414C35.736 61.1614 36 60.5934 36 60.0014V4.00138C36 3.40538 35.736 2.84138 35.276 2.46138Z" fill="#0B2577"/>
<g clip-path="url(#clip0_3126_3969)">
<path d="M16.3082 21.7312V41.9999H12.2517V22.0936L16.3082 21.7312ZM24.1507 29.5001V33.0001L15.1994 33.5001V30.0001L24.1507 29.5001ZM25.0972 21.0001V24.5001L15.1994 25.3065V21.8234L25.0972 21.0001Z" fill="white"/>
</g>
<defs>
<clipPath id="clip0_3126_3969">
<rect width="15" height="21" fill="white" transform="translate(11 21.1172) rotate(-0.885763)"/>
</clipPath>
</defs>
</svg>
