<svg width="56" height="38" viewBox="0 0 56 38" fill="none" xmlns="http://www.w3.org/2000/svg">
<path fill-rule="evenodd" clip-rule="evenodd" d="M10.0252 19.4547C12.5985 19.4491 15.0762 20.429 16.9494 22.1934C14.2093 24.642 12.3478 27.9218 11.6504 31.5298C11.1105 31.5859 10.568 31.6143 10.0252 31.6149C6.34149 31.6199 2.78044 30.2916 0 27.8752C0.873688 23.0487 5.1205 19.4547 10.0252 19.4547ZM10.0252 6.3867C11.1285 6.3867 12.2069 6.71385 13.1242 7.32679C14.0416 7.93972 14.7565 8.8109 15.1787 9.83017C15.6009 10.8494 15.7114 11.971 15.4961 13.0531C15.2809 14.1351 14.7496 15.129 13.9695 15.9092C13.1894 16.6893 12.1955 17.2205 11.1134 17.4358C10.0314 17.651 8.90982 17.5405 7.89055 17.1183C6.87128 16.6961 6.00009 15.9812 5.38716 15.0639C4.77423 14.1466 4.44708 13.0681 4.44708 11.9648C4.44853 10.4859 5.03668 9.06788 6.08247 8.0221C7.12826 6.97631 8.54624 6.38815 10.0252 6.3867ZM36.5072 8.67581C36.5072 10.3586 36.0083 12.0036 35.0734 13.4028C34.1385 14.802 32.8097 15.8925 31.255 16.5365C29.7003 17.1804 27.9895 17.3489 26.3391 17.0206C24.6887 16.6922 23.1726 15.8819 21.9828 14.6919C20.7929 13.502 19.9827 11.9859 19.6545 10.3354C19.3262 8.68495 19.4948 6.97422 20.1389 5.41958C20.783 3.86494 21.8736 2.53621 23.2729 1.60143C24.6722 0.666643 26.3172 0.167796 28 0.167969C30.2556 0.170603 32.418 1.06783 34.0128 2.66281C35.6077 4.25779 36.5047 6.42026 36.5072 8.67581ZM40.3956 11.9644C40.3954 10.861 40.7225 9.78236 41.3354 8.86485C41.9483 7.94735 42.8195 7.2322 43.8389 6.80984C44.8582 6.38748 45.98 6.27689 47.0622 6.49204C48.1444 6.70719 49.1385 7.23842 49.9188 8.01855C50.6991 8.79869 51.2305 9.79269 51.4458 10.8749C51.6612 11.957 51.5508 13.0788 51.1287 14.0982C50.7065 15.1176 49.9915 15.989 49.0742 16.6021C48.1568 17.2151 47.0782 17.5424 45.9748 17.5425C44.4957 17.5411 43.0776 16.953 42.0316 15.9073C40.9856 14.8615 40.3973 13.4435 40.3956 11.9644ZM12.9406 32.1441C17.1008 35.8098 22.4551 37.8325 27.9999 37.8331C33.5447 37.8337 38.8995 35.8122 43.0605 32.1474C41.8284 24.8225 35.4177 19.3447 28 19.3447C20.5856 19.3447 14.175 24.8214 12.9406 32.1447V32.1441ZM39.0506 22.1927C40.9238 20.4284 43.4015 19.4484 45.9748 19.4541C50.8817 19.4541 55.1285 23.049 56 27.8759C53.2194 30.292 49.6584 31.62 45.9748 31.6146C45.432 31.614 44.8895 31.5856 44.3496 31.5295C43.6526 27.9214 41.7911 24.6416 39.0506 22.1934V22.1927Z" fill="#2F6CE9"/>
</svg>
