<svg width="62" height="62" viewBox="0 0 62 62" fill="none" xmlns="http://www.w3.org/2000/svg">
<path d="M35 33C32.8244 33 30.6977 33.6451 28.8887 34.8538C27.0798 36.0625 25.6699 37.7805 24.8373 39.7905C24.0048 41.8005 23.7869 44.0122 24.2114 46.146C24.6358 48.2798 25.6835 50.2398 27.2218 51.7782C28.7602 53.3166 30.7202 54.3642 32.854 54.7886C34.9878 55.2131 37.1995 54.9952 39.2095 54.1627C41.2195 53.3301 42.9375 51.9202 44.1462 50.1113C45.3549 48.3023 46 46.1756 46 44C45.9967 41.0836 44.8367 38.2877 42.7745 36.2255C40.7124 34.1633 37.9164 33.0033 35 33ZM39.3076 47.4551C39.1574 48.3212 38.7565 49.1242 38.1545 49.7648C37.5526 50.4054 36.776 50.8554 35.9209 51.0591V52C35.9209 52.2652 35.8155 52.5196 35.628 52.7071C35.4405 52.8946 35.1861 53 34.9209 53C34.6557 53 34.4013 52.8946 34.2138 52.7071C34.0263 52.5196 33.9209 52.2652 33.9209 52V51.1563C32.8973 51.092 31.9133 50.7373 31.084 50.1338C30.8641 49.9876 30.711 49.7604 30.658 49.5017C30.605 49.2431 30.6564 48.9739 30.801 48.753C30.9456 48.5321 31.1717 48.3773 31.43 48.3224C31.6882 48.2675 31.9577 48.317 32.1797 48.46C32.6862 48.8437 33.2887 49.0805 33.9209 49.1443V44.0703C31.9628 43.1858 30.6324 42.1165 31.0654 39.8164C31.1866 39.0909 31.5241 38.4189 32.0336 37.8884C32.5431 37.3579 33.2009 36.9936 33.9209 36.8432C33.9592 36.6856 33.6151 35 34.9209 35C35.0522 34.9999 35.1823 35.0257 35.3037 35.076C35.425 35.1262 35.5353 35.1999 35.6282 35.2927C35.7211 35.3856 35.7947 35.4959 35.8449 35.6172C35.8952 35.7386 35.921 35.8687 35.9209 36V36.7653C36.7398 36.9036 37.5089 37.2516 38.1533 37.7754C38.3475 37.9545 38.4629 38.2033 38.4743 38.4673C38.4857 38.7312 38.3921 38.989 38.2141 39.1842C38.036 39.3794 37.788 39.4962 37.5241 39.5091C37.2602 39.522 37.0019 39.4299 36.8057 39.2529C36.5421 39.0484 36.2417 38.8963 35.9209 38.8047V42.7292C36.1555 42.8173 36.3911 42.9048 36.6211 42.9863C37.541 43.2691 38.324 43.8817 38.8198 44.7064C39.3156 45.5312 39.4894 46.5101 39.3076 47.4551Z" fill="#75D0C8"/>
<path d="M33.0312 40.1866C32.8399 41.2064 33.3858 41.511 33.9219 41.8236V38.9526C33.6918 39.0802 33.4928 39.2569 33.3388 39.4702C33.1849 39.6835 33.0799 39.9281 33.0312 40.1866Z" fill="#75D0C8"/>
<path d="M35.9219 44.8589V48.968C36.2902 48.7992 36.6117 48.5428 36.8582 48.2212C37.1046 47.8996 37.2687 47.5225 37.336 47.1229C37.4347 46.6363 37.3432 46.1303 37.0801 45.7091C36.817 45.2879 36.4025 44.9836 35.9219 44.8589Z" fill="#75D0C8"/>
<path d="M61.7057 36.2917L52.7083 27.2943C52.5204 27.1064 52.2657 27.0006 52 27H21C20.2046 27.0009 19.4421 27.3172 18.8796 27.8796C18.3172 28.4421 18.0009 29.2046 18 30V59C18.0009 59.7954 18.3172 60.5579 18.8796 61.1204C19.4421 61.6828 20.2046 61.9991 21 62H59C59.7954 61.9991 60.5579 61.6828 61.1204 61.1204C61.6828 60.5579 61.9991 59.7954 62 59V37C61.9994 36.7343 61.8936 36.4796 61.7057 36.2917ZM50.707 59.707C50.6142 59.7999 50.5039 59.8736 50.3826 59.9238C50.2613 59.9741 50.1313 60 50 60C49.8687 60 49.7386 59.9741 49.6173 59.9238C49.496 59.8736 49.3858 59.7999 49.2929 59.707L43.4472 53.8613C40.8877 56.0552 37.5778 57.1724 34.2123 56.9784C30.8467 56.7844 27.6871 55.2943 25.3966 52.8209C23.1061 50.3474 21.8627 47.0828 21.9274 43.7123C21.9921 40.3418 23.3598 37.1273 25.7436 34.7436C28.1273 32.3598 31.3418 30.9921 34.7123 30.9274C38.0828 30.8627 41.3474 32.1061 43.8209 34.3966C46.2943 36.6871 47.7844 39.8467 47.9784 43.2123C48.1724 46.5778 47.0552 49.8877 44.8613 52.4472L50.707 58.293C50.7999 58.3858 50.8735 58.496 50.9238 58.6174C50.9741 58.7387 50.9999 58.8687 50.9999 59C50.9999 59.1313 50.9741 59.2613 50.9238 59.3826C50.8735 59.504 50.7999 59.6142 50.707 59.707ZM57 53H51C50.7348 53 50.4804 52.8946 50.2929 52.7071C50.1054 52.5196 50 52.2652 50 52C50 51.7348 50.1054 51.4804 50.2929 51.2929C50.4804 51.1054 50.7348 51 51 51H57C57.2652 51 57.5196 51.1054 57.7071 51.2929C57.8946 51.4804 58 51.7348 58 52C58 52.2652 57.8946 52.5196 57.7071 52.7071C57.5196 52.8946 57.2652 53 57 53ZM57 49H51C50.7348 49 50.4804 48.8946 50.2929 48.7071C50.1054 48.5196 50 48.2652 50 48C50 47.7348 50.1054 47.4804 50.2929 47.2929C50.4804 47.1054 50.7348 47 51 47H57C57.2652 47 57.5196 47.1054 57.7071 47.2929C57.8946 47.4804 58 47.7348 58 48C58 48.2652 57.8946 48.5196 57.7071 48.7071C57.5196 48.8946 57.2652 49 57 49ZM57 45H51C50.7348 45 50.4804 44.8946 50.2929 44.7071C50.1054 44.5196 50 44.2652 50 44C50 43.7348 50.1054 43.4804 50.2929 43.2929C50.4804 43.1054 50.7348 43 51 43H57C57.2652 43 57.5196 43.1054 57.7071 43.2929C57.8946 43.4804 58 43.7348 58 44C58 44.2652 57.8946 44.5196 57.7071 44.7071C57.5196 44.8946 57.2652 45 57 45ZM54 36C53.7348 35.9998 53.4806 35.8944 53.2931 35.7069C53.1056 35.5194 53.0002 35.2652 53 35V30.4141L58.5859 36H54Z" fill="#75D0C8"/>
<path d="M47 0H3C2.20462 0.000868196 1.44206 0.317218 0.879639 0.879639C0.317218 1.44206 0.000868196 2.20462 0 3V35C0.000868196 35.7954 0.317218 36.5579 0.879639 37.1204C1.44206 37.6828 2.20462 37.9991 3 38H47C47.7954 37.9991 48.5579 37.6828 49.1204 37.1204C49.6828 36.5579 49.9991 35.7954 50 35V3C49.9991 2.20462 49.6828 1.44206 49.1204 0.879639C48.5579 0.317218 47.7954 0.000868196 47 0ZM48 35C47.9998 35.2652 47.8944 35.5194 47.7069 35.7069C47.5194 35.8944 47.2652 35.9998 47 36H3C2.73484 35.9998 2.48059 35.8944 2.29309 35.7069C2.10559 35.5194 2.00018 35.2652 2 35V3C2.00018 2.73484 2.10559 2.48059 2.29309 2.29309C2.48059 2.10559 2.73484 2.00018 3 2H47C47.2652 2.00018 47.5194 2.10559 47.7069 2.29309C47.8944 2.48059 47.9998 2.73484 48 3V35Z" fill="#0B2577"/>
<path d="M41 6H39C38.2046 6.00087 37.4421 6.31722 36.8796 6.87964C36.3172 7.44206 36.0009 8.20462 36 9V14H33C32.2046 14.0009 31.4421 14.3172 30.8796 14.8796C30.3172 15.4421 30.0009 16.2046 30 17V21H27C26.2046 21.0009 25.4421 21.3172 24.8796 21.8796C24.3172 22.4421 24.0009 23.2046 24 24V31C23.9999 31.1313 24.0257 31.2614 24.076 31.3828C24.1262 31.5041 24.1999 31.6144 24.2927 31.7073C24.3856 31.8001 24.4959 31.8738 24.6172 31.924C24.7386 31.9743 24.8687 32.0001 25 32H43C43.1313 32.0001 43.2614 31.9743 43.3828 31.924C43.5041 31.8738 43.6144 31.8001 43.7073 31.7073C43.8001 31.6144 43.8738 31.5041 43.924 31.3828C43.9743 31.2614 44.0001 31.1313 44 31V9C43.9991 8.20462 43.6828 7.44206 43.1204 6.87964C42.5579 6.31722 41.7954 6.00087 41 6ZM26 24C26.0002 23.7348 26.1056 23.4806 26.2931 23.2931C26.4806 23.1056 26.7348 23.0002 27 23H30V30H26V24ZM32 17C32.0002 16.7348 32.1056 16.4806 32.2931 16.2931C32.4806 16.1056 32.7348 16.0002 33 16H36V30H32V17ZM42 30H38V9C38.0002 8.73484 38.1056 8.48059 38.2931 8.29309C38.4806 8.10559 38.7348 8.00018 39 8H41C41.2652 8.00018 41.5194 8.10559 41.7069 8.29309C41.8944 8.48059 41.9998 8.73484 42 9V30Z" fill="#0B2577"/>
<path d="M19 30H7C6.73478 30 6.48043 30.1054 6.29289 30.2929C6.10536 30.4804 6 30.7348 6 31C6 31.2652 6.10536 31.5196 6.29289 31.7071C6.48043 31.8946 6.73478 32 7 32H19C19.2652 32 19.5196 31.8946 19.7071 31.7071C19.8946 31.5196 20 31.2652 20 31C20 30.7348 19.8946 30.4804 19.7071 30.2929C19.5196 30.1054 19.2652 30 19 30Z" fill="#0B2577"/>
<path d="M16 25H7C6.73478 25 6.48043 25.1054 6.29289 25.2929C6.10536 25.4804 6 25.7348 6 26C6 26.2652 6.10536 26.5196 6.29289 26.7071C6.48043 26.8946 6.73478 27 7 27H16C16.2652 27 16.5196 26.8946 16.7071 26.7071C16.8946 26.5196 17 26.2652 17 26C17 25.7348 16.8946 25.4804 16.7071 25.2929C16.5196 25.1054 16.2652 25 16 25Z" fill="#0B2577"/>
<path d="M9.16337 20.1338C9.99263 20.7373 10.9767 21.092 12.0003 21.1563V22C12.0003 22.2652 12.1056 22.5196 12.2932 22.7071C12.4807 22.8946 12.7351 23 13.0003 23C13.2655 23 13.5199 22.8946 13.7074 22.7071C13.8949 22.5196 14.0003 22.2652 14.0003 22V21.0591C14.8554 20.8554 15.6319 20.4054 16.2339 19.7648C16.8359 19.1242 17.2368 18.3212 17.387 17.4551C17.5687 16.5101 17.395 15.5312 16.8992 14.7064C16.4034 13.8817 15.6203 13.2691 14.7005 12.9863C14.4705 12.9049 14.2348 12.8173 14.0003 12.7292V8.80511C14.3211 8.89656 14.6214 9.04856 14.8851 9.25293C15.0812 9.43029 15.3396 9.52272 15.6038 9.51C15.8679 9.49729 16.1163 9.38045 16.2945 9.18507C16.4727 8.98969 16.5662 8.73167 16.5546 8.46748C16.5431 8.20329 16.4273 7.95444 16.2327 7.77539C15.588 7.25206 14.819 6.90418 14.0003 6.7655V6C14.0003 5.73478 13.8949 5.48043 13.7074 5.29289C13.5199 5.10536 13.2655 5 13.0003 5C12.7351 5 12.4807 5.10536 12.2932 5.29289C12.1056 5.48043 12.0003 5.73478 12.0003 6V6.84326C11.8935 6.86859 11.7947 6.875 11.6849 6.9082C11.0352 7.11294 10.4545 7.49264 10.0065 8.00565C9.55844 8.51865 9.26033 9.14515 9.14486 9.81641C9.01173 10.4016 9.04178 11.0121 9.23171 11.5814C9.42164 12.1507 9.76418 12.6569 10.222 13.0449C10.7714 13.457 11.3685 13.8013 12.0003 14.0704V19.1462C11.3679 19.0814 10.7656 18.844 10.2591 18.46C10.0371 18.3147 9.76652 18.2635 9.50683 18.3177C9.24713 18.3719 9.01961 18.5271 8.87431 18.7491C8.72901 18.971 8.67784 19.2416 8.73205 19.5013C8.78626 19.761 8.94141 19.9885 9.16337 20.1338V20.1338ZM11.4564 11.4707C11.2903 11.3063 11.1708 11.1009 11.1099 10.8754C11.049 10.6498 11.0489 10.4121 11.1097 10.1865C11.1583 9.928 11.2633 9.68339 11.4173 9.47009C11.5712 9.25678 11.7703 9.08004 12.0003 8.95245V11.8238C11.8113 11.7183 11.6296 11.6003 11.4563 11.4707H11.4564ZM15.4144 17.1231C15.3471 17.5226 15.1831 17.8997 14.9366 18.2213C14.6901 18.5429 14.3686 18.7993 14.0003 18.9681V14.859C14.4809 14.9838 14.8954 15.2881 15.1585 15.7092C15.4215 16.1304 15.5131 16.6364 15.4143 17.1231H15.4144Z" fill="#0B2577"/>
</svg>
