<svg width="62" height="62" viewBox="0 0 62 62" fill="none" xmlns="http://www.w3.org/2000/svg">
<path d="M50.1095 45.1865C49.9174 46.2103 50.466 46.5124 51.0001 46.8235V43.9525C50.77 44.0799 50.5708 44.2566 50.4168 44.4699C50.2628 44.6832 50.1579 44.9279 50.1095 45.1865Z" fill="#75D0C8"/>
<path d="M53.0332 49.8711L53 49.859V53.9681C53.3684 53.7993 53.6898 53.5429 53.9364 53.2213C54.183 52.8997 54.3471 52.5226 54.4146 52.123C54.5105 51.6427 54.4214 51.1438 54.1653 50.7263C53.9092 50.3087 53.5049 50.0033 53.0332 49.8711Z" fill="#75D0C8"/>
<path d="M59 36H27C26.2046 36.0009 25.4421 36.3172 24.8796 36.8796C24.3172 37.4421 24.0009 38.2046 24 39V59C24.0009 59.7954 24.3172 60.5579 24.8796 61.1204C25.4421 61.6828 26.2046 61.9991 27 62H59C59.7954 61.9991 60.5579 61.6828 61.1204 61.1204C61.6828 60.5579 61.9991 59.7954 62 59V39C61.9991 38.2046 61.6828 37.4421 61.1204 36.8796C60.5579 36.3172 59.7954 36.0009 59 36ZM40 56H31C30.7348 56 30.4804 55.8946 30.2929 55.7071C30.1054 55.5196 30 55.2652 30 55C30 54.7348 30.1054 54.4804 30.2929 54.2929C30.4804 54.1054 30.7348 54 31 54H40C40.2652 54 40.5196 54.1054 40.7071 54.2929C40.8946 54.4804 41 54.7348 41 55C41 55.2652 40.8946 55.5196 40.7071 55.7071C40.5196 55.8946 40.2652 56 40 56ZM40 50H31C30.7348 50 30.4804 49.8946 30.2929 49.7071C30.1054 49.5196 30 49.2652 30 49C30 48.7348 30.1054 48.4804 30.2929 48.2929C30.4804 48.1054 30.7348 48 31 48H40C40.2652 48 40.5196 48.1054 40.7071 48.2929C40.8946 48.4804 41 48.7348 41 49C41 49.2652 40.8946 49.5196 40.7071 49.7071C40.5196 49.8946 40.2652 50 40 50ZM40 44H31C30.7348 44 30.4804 43.8946 30.2929 43.7071C30.1054 43.5196 30 43.2652 30 43C30 42.7348 30.1054 42.4804 30.2929 42.2929C30.4804 42.1054 30.7348 42 31 42H40C40.2652 42 40.5196 42.1054 40.7071 42.2929C40.8946 42.4804 41 42.7348 41 43C41 43.2652 40.8946 43.5196 40.7071 43.7071C40.5196 43.8946 40.2652 44 40 44ZM56.3867 52.4551C56.2366 53.3212 55.8357 54.1243 55.2337 54.7649C54.6318 55.4055 53.8551 55.8554 53 56.0591V57C53 57.2652 52.8946 57.5196 52.7071 57.7071C52.5196 57.8946 52.2652 58 52 58C51.7348 58 51.4804 57.8946 51.2929 57.7071C51.1054 57.5196 51 57.2652 51 57V56.1563C49.9765 56.0921 48.9926 55.7374 48.1636 55.1338C47.9416 54.9886 47.7864 54.7612 47.7321 54.5016C47.6778 54.242 47.7289 53.9715 47.874 53.7495C48.0192 53.5276 48.2466 53.3724 48.5062 53.3181C48.7658 53.2638 49.0363 53.3148 49.2583 53.46C49.7656 53.8427 50.3679 54.0794 51 54.1445V49.0707C49.0618 48.1957 47.7084 47.1304 48.144 44.8164C48.2595 44.145 48.5577 43.5184 49.006 43.0054C49.4542 42.4924 50.0352 42.1127 50.685 41.9082C50.7947 41.8751 50.8932 41.8688 50.9999 41.8435V41C50.9999 40.7348 51.1053 40.4804 51.2928 40.2929C51.4804 40.1054 51.7347 40 51.9999 40C52.2652 40 52.5195 40.1054 52.707 40.2929C52.8946 40.4804 52.9999 40.7348 52.9999 41V41.7656C53.8189 41.9038 54.5882 42.2517 55.2328 42.7754C55.4271 42.9546 55.5426 43.2034 55.554 43.4675C55.5654 43.7315 55.4718 43.9894 55.2936 44.1846C55.1155 44.3799 54.8673 44.4967 54.6033 44.5095C54.3392 44.5223 54.0809 44.43 53.8847 44.2529C53.6206 44.0497 53.3204 43.8982 53 43.8065V47.7291C53.2346 47.8173 53.4701 47.9049 53.7002 47.9863C54.6201 48.2691 55.4031 48.8817 55.8989 49.7064C56.3947 50.5312 56.5685 51.5101 56.3867 52.4551Z" fill="#75D0C8"/>
<path d="M38.4141 13L42.4644 8.94971C43.195 8.21553 43.692 7.28158 43.8928 6.26548C44.0937 5.24938 43.9893 4.19657 43.5929 3.23965C43.1966 2.28273 42.5259 1.4645 41.6654 0.888004C40.8049 0.311511 39.7931 0.00253812 38.7573 0H11.2427C10.2069 0.00250345 9.19506 0.311457 8.33454 0.887946C7.47402 1.46444 6.80334 2.28268 6.40698 3.23961C6.01061 4.19655 5.90629 5.24937 6.10714 6.26549C6.308 7.2816 6.80505 8.21555 7.53569 8.94971L11.586 13L5.26368 19.3223C2.75038 21.8355 1.03879 25.0375 0.345345 28.5235C-0.348099 32.0095 0.00775623 35.6228 1.36791 38.9065C2.72806 42.1902 5.03142 44.9969 7.9867 46.9715C10.942 48.9461 14.4164 50 17.9707 50H32.0293C35.5836 50 39.058 48.9461 42.0133 46.9715C44.9686 44.9968 47.2719 42.1902 48.6321 38.9065C49.9922 35.6228 50.3481 32.0094 49.6547 28.5235C48.9612 25.0375 47.2496 21.8355 44.7363 19.3223L38.4141 13ZM11.2427 2H38.7573C39.3979 2.00175 40.0236 2.19297 40.5557 2.54957C41.0879 2.90617 41.5026 3.41223 41.7477 4.00403C41.9929 4.59583 42.0575 5.24692 41.9334 5.87535C41.8093 6.50378 41.502 7.08145 41.0503 7.53564L36.586 12H13.4141L8.94972 7.53564C8.49799 7.08147 8.19071 6.5038 8.06659 5.87536C7.94246 5.24692 8.00704 4.5958 8.25218 4.00399C8.49732 3.41217 8.91207 2.90611 9.44422 2.54951C9.97637 2.19291 10.6021 2.00172 11.2427 2ZM32.0293 48H17.9707C14.812 48 11.7242 47.0634 9.09785 45.3085C6.47148 43.5536 4.42447 41.0593 3.21568 38.141C2.00689 35.2228 1.69062 32.0116 2.30686 28.9136C2.92309 25.8156 4.44416 22.9699 6.67771 20.7363L13.4141 14H20.2882L15.5938 16.0864C15.4738 16.1398 15.3655 16.2162 15.2751 16.3114C15.1847 16.4066 15.1139 16.5187 15.0668 16.6413C14.9716 16.8888 14.9787 17.164 15.0864 17.4062C15.1942 17.6485 15.3938 17.8381 15.6413 17.9333C15.8888 18.0284 16.164 18.0213 16.4063 17.9136L25 14.0942L33.5938 17.9136C33.8361 18.0213 34.1112 18.0284 34.3587 17.9333C34.6063 17.8381 34.8058 17.6485 34.9136 17.4062C35.0213 17.164 35.0284 16.8888 34.9333 16.6413C34.8381 16.3938 34.6486 16.1942 34.4063 16.0864L29.7118 14H36.586L43.3223 20.7363C45.5558 22.9699 47.0769 25.8156 47.6931 28.9136C48.3094 32.0116 47.9931 35.2228 46.7843 38.141C45.5755 41.0593 43.5285 43.5536 40.9022 45.3085C38.2758 47.0633 35.188 48 32.0293 48Z" fill="#0B2577"/>
<path d="M25 18C22.4289 18 19.9154 18.7624 17.7776 20.1909C15.6398 21.6194 13.9735 23.6497 12.9896 26.0251C12.0056 28.4006 11.7482 31.0144 12.2498 33.5362C12.7514 36.0579 13.9895 38.3743 15.8076 40.1924C17.6257 42.0105 19.9421 43.2486 22.4638 43.7502C24.9856 44.2518 27.5995 43.9944 29.9749 43.0104C32.3503 42.0265 34.3807 40.3603 35.8091 38.2224C37.2376 36.0846 38 33.5712 38 31C37.9962 27.5534 36.6253 24.249 34.1882 21.8118C31.751 19.3747 28.4467 18.0038 25 18ZM25 42C22.8244 42 20.6977 41.3549 18.8887 40.1462C17.0798 38.9375 15.6699 37.2195 14.8373 35.2095C14.0048 33.1995 13.7869 30.9878 14.2114 28.854C14.6358 26.7202 15.6835 24.7602 17.2218 23.2218C18.7602 21.6834 20.7202 20.6358 22.854 20.2114C24.9878 19.7869 27.1995 20.0048 29.2095 20.8373C31.2195 21.6699 32.9375 23.0798 34.1462 24.8887C35.3549 26.6977 36 28.8244 36 31C35.9967 33.9164 34.8367 36.7124 32.7745 38.7745C30.7124 40.8367 27.9164 41.9967 25 42Z" fill="#0B2577"/>
<path d="M26.6197 29.9853C26.3899 29.9042 26.1544 29.8167 25.9199 29.7288V25.8071C26.2404 25.8984 26.5406 26.0497 26.8047 26.2529C27.0008 26.4299 27.259 26.5221 27.5228 26.5094C27.7867 26.4967 28.0348 26.38 28.2129 26.185C28.3911 25.9899 28.4848 25.7323 28.4737 25.4684C28.4625 25.2045 28.3473 24.9557 28.1533 24.7764C27.5092 24.2512 26.7395 23.9027 25.9199 23.765V23C25.9199 22.7348 25.8146 22.4804 25.6271 22.2929C25.4395 22.1054 25.1852 22 24.9199 22C24.6547 22 24.4004 22.1054 24.2128 22.2929C24.0253 22.4804 23.9199 22.7348 23.9199 23V23.8435C23.8133 23.8688 23.7148 23.8751 23.605 23.9082C22.9552 24.1127 22.3744 24.4923 21.9261 25.0052C21.4779 25.5181 21.1796 26.1446 21.064 26.8159C20.9308 27.4013 20.9609 28.0121 21.151 28.5816C21.3412 29.1511 21.684 29.6574 22.1421 30.0454C22.6913 30.4575 23.2883 30.8018 23.92 31.0709V36.1485C23.2877 36.0812 22.6856 35.8432 22.1782 35.46C21.9563 35.3148 21.6857 35.2638 21.4261 35.3181C21.1665 35.3724 20.9391 35.5276 20.794 35.7495C20.6488 35.9715 20.5977 36.2421 20.652 36.5017C20.7063 36.7613 20.8616 36.9887 21.0835 37.1338C21.9126 37.7373 22.8965 38.092 23.9199 38.1563V39C23.9199 39.2652 24.0253 39.5196 24.2128 39.7071C24.4004 39.8946 24.6547 40 24.9199 40C25.1852 40 25.4395 39.8946 25.6271 39.7071C25.8146 39.5196 25.9199 39.2652 25.9199 39V38.0591C26.7751 37.8554 27.5517 37.4054 28.1538 36.7648C28.7558 36.1242 29.1568 35.3212 29.3072 34.4551C29.4888 33.5098 29.3149 32.5308 28.8189 31.7058C28.3229 30.8809 27.5397 30.2682 26.6197 29.9853ZM23.3765 28.4712C23.2102 28.3068 23.0905 28.1012 23.0296 27.8754C22.9687 27.6497 22.9688 27.4118 23.0298 27.186C23.0781 26.9276 23.183 26.6831 23.3369 26.4699C23.4907 26.2568 23.6899 26.0803 23.9199 25.9531V28.8238C23.7312 28.7184 23.5496 28.6006 23.3765 28.4712ZM27.335 34.1231C27.2675 34.5227 27.1033 34.8997 26.8566 35.2213C26.61 35.543 26.2884 35.7994 25.92 35.9682V31.859C26.4007 31.9837 26.8153 32.288 27.0786 32.7091C27.3418 33.1303 27.4335 33.6363 27.335 34.1231Z" fill="#0B2577"/>
</svg>
