<svg width="62" height="62" viewBox="0 0 62 62" fill="none" xmlns="http://www.w3.org/2000/svg">
<path d="M41.0859 53.6709L45 57.5859L48.9141 53.6709L46.5548 41.8729C45.5214 41.9863 44.4786 41.9863 43.4452 41.8729L41.0859 53.6709Z" fill="#75D0C8"/>
<path d="M53.0674 40.0342C52.9156 39.9523 52.7452 39.911 52.5728 39.9142C52.4003 39.9175 52.2316 39.9652 52.083 40.0528C50.9714 40.7064 49.7729 41.1995 48.5232 41.5173L50.9805 53.8038C51.0127 53.9652 51.0047 54.1321 50.957 54.2897C50.9093 54.4473 50.8234 54.5906 50.707 54.7071L45.707 59.7071C45.6142 59.8 45.504 59.8736 45.3827 59.9239C45.2613 59.9742 45.1313 60.0001 45 60.0001C44.8687 60.0001 44.7387 59.9742 44.6173 59.9239C44.496 59.8736 44.3858 59.8 44.293 59.7071L39.293 54.7071C39.1766 54.5906 39.0907 54.4473 39.043 54.2897C38.9953 54.1321 38.9873 53.9652 39.0195 53.8038L41.4768 41.5173C40.2271 41.1995 39.0286 40.7064 37.917 40.0528C37.7684 39.9652 37.5997 39.9175 37.4273 39.9142C37.2548 39.911 37.0844 39.9523 36.9326 40.0342C34.2313 41.49 31.9746 43.65 30.4018 46.2849C28.8291 48.9199 27.9992 51.9314 28 55.0001V61.0001C28 61.1314 28.0258 61.2614 28.0761 61.3828C28.1263 61.5041 28.2 61.6144 28.2928 61.7072C28.3857 61.8001 28.4959 61.8738 28.6173 61.924C28.7386 61.9742 28.8687 62.0001 29 62.0001H61C61.1313 62.0001 61.2614 61.9743 61.3828 61.9241C61.5041 61.8739 61.6144 61.8002 61.7073 61.7073C61.8001 61.6145 61.8738 61.5042 61.924 61.3828C61.9743 61.2615 62.0001 61.1314 62 61.0001V55.0001C62.0008 51.9314 61.1709 48.9199 59.5982 46.2849C58.0254 43.65 55.7687 41.49 53.0674 40.0342Z" fill="#75D0C8"/>
<path d="M44.8174 26H56.8204C56.4292 23.6624 55.3532 21.4934 53.7286 19.7676C52.1041 18.0418 50.004 16.8368 47.6942 16.3052C45.3845 15.7736 42.969 15.9392 40.7534 16.7811C38.5378 17.623 36.6219 19.1033 35.248 21.0347C36.3291 22.568 37.7625 23.8193 39.4277 24.6834C41.0929 25.5474 42.9413 25.999 44.8174 26Z" fill="#75D0C8"/>
<path d="M44.8118 27.9999C42.7672 27.9959 40.7494 27.5344 38.9063 26.6492C37.0632 25.7641 35.4416 24.4776 34.1603 22.8843C33.3924 24.5103 32.9999 26.2882 33.012 28.0864C33.024 29.8847 33.4403 31.6572 34.2299 33.2728C35.0196 34.8884 36.1624 36.3058 37.5738 37.42C38.9853 38.5343 40.6292 39.3169 42.384 39.7099C44.1388 40.103 45.9595 40.0964 47.7114 39.6907C49.4633 39.285 51.1015 38.4906 52.5049 37.3662C53.9083 36.2418 55.0408 34.8162 55.8188 33.1949C56.5968 31.5736 57.0002 29.7982 56.9993 27.9999H44.8118Z" fill="#75D0C8"/>
<path d="M25 5C21.0444 5 17.1776 6.17298 13.8886 8.37061C10.5996 10.5682 8.03617 13.6918 6.52242 17.3463C5.00867 21.0009 4.6126 25.0222 5.3843 28.9018C6.15601 32.7814 8.06082 36.3451 10.8579 39.1421C13.6549 41.9392 17.2186 43.844 21.0982 44.6157C24.9778 45.3874 28.9992 44.9913 32.6537 43.4776C36.3082 41.9638 39.4318 39.4004 41.6294 36.1114C43.827 32.8224 45 28.9556 45 25C44.981 19.7015 42.8677 14.6255 39.1211 10.8789C35.3745 7.13226 30.2985 5.01902 25 5ZM41.0474 33.1102L39.3565 32.1338C39.2427 32.068 39.1171 32.0254 38.9869 32.0082C38.8566 31.991 38.7242 31.9996 38.5973 32.0336C38.4704 32.0676 38.3514 32.1263 38.2472 32.2062C38.1429 32.2862 38.0555 32.386 37.9898 32.4997C37.9241 32.6135 37.8815 32.7391 37.8644 32.8694C37.8473 32.9997 37.856 33.132 37.89 33.2589C37.9241 33.3858 37.9828 33.5048 38.0628 33.609C38.1429 33.7132 38.2426 33.8006 38.3565 33.8662L40.0507 34.8445C38.6896 36.9177 36.9177 38.6896 34.8445 40.0507L33.8662 38.3564C33.8006 38.2426 33.7132 38.1428 33.609 38.0628C33.5048 37.9828 33.3858 37.9241 33.259 37.89C33.1321 37.856 32.9997 37.8473 32.8694 37.8644C32.7392 37.8815 32.6135 37.9241 32.4998 37.9898C32.386 38.0555 32.2862 38.1429 32.2063 38.2472C32.1263 38.3514 32.0676 38.4704 32.0336 38.5973C31.9996 38.7242 31.991 38.8566 32.0082 38.9868C32.0254 39.1171 32.0681 39.2427 32.1338 39.3564L33.1102 41.0474C30.898 42.1684 28.4765 42.8162 26 42.9493V41C26 40.7348 25.8947 40.4804 25.7071 40.2929C25.5196 40.1054 25.2652 40 25 40C24.7348 40 24.4804 40.1054 24.2929 40.2929C24.1054 40.4804 24 40.7348 24 41V42.9493C21.5235 42.8162 19.102 42.1685 16.8898 41.0474L17.8662 39.3564C17.932 39.2427 17.9746 39.1171 17.9918 38.9868C18.009 38.8566 18.0004 38.7242 17.9664 38.5973C17.9324 38.4704 17.8737 38.3514 17.7938 38.2471C17.7138 38.1429 17.6141 38.0554 17.5003 37.9898C17.3865 37.9241 17.2609 37.8815 17.1306 37.8643C17.0003 37.8472 16.868 37.8559 16.7411 37.89C16.6142 37.924 16.4952 37.9828 16.391 38.0628C16.2868 38.1428 16.1994 38.2426 16.1338 38.3564L15.1554 40.0508C13.0821 38.6897 11.3102 36.9177 9.94917 34.8444L11.6436 33.8662C11.7574 33.8006 11.8572 33.7131 11.9372 33.609C12.0172 33.5048 12.0759 33.3858 12.11 33.2589C12.144 33.132 12.1528 32.9997 12.1356 32.8694C12.1185 32.7391 12.0759 32.6135 12.0102 32.4997C11.9445 32.3859 11.8571 32.2862 11.7528 32.2062C11.6486 32.1262 11.5296 32.0676 11.4027 32.0336C11.2758 31.9996 11.1434 31.991 11.0132 32.0081C10.8829 32.0253 10.7573 32.068 10.6436 32.1338L8.95256 33.11C7.83156 30.8979 7.18383 28.4764 7.05067 26H9.00001C9.26523 26 9.51958 25.8946 9.70712 25.7071C9.89465 25.5196 10 25.2652 10 25C10 24.7348 9.89465 24.4804 9.70712 24.2929C9.51958 24.1054 9.26523 24 9.00001 24H7.05067C7.18384 21.5236 7.83159 19.1021 8.95259 16.89C9.67224 17.1232 11.2378 18.8327 12.0098 17.5C12.1423 17.2703 12.1782 16.9973 12.1096 16.7411C12.0409 16.4849 11.8733 16.2665 11.6436 16.1338L9.94917 15.1556C11.3102 13.0823 13.0821 11.3103 15.1554 9.94927L16.1338 11.6436C16.1994 11.7574 16.2868 11.8572 16.391 11.9372C16.4952 12.0173 16.6142 12.076 16.7411 12.11C16.868 12.1441 17.0003 12.1528 17.1306 12.1357C17.2609 12.1186 17.3865 12.0759 17.5003 12.0103C17.6141 11.9446 17.7138 11.8571 17.7938 11.7529C17.8737 11.6486 17.9324 11.5297 17.9664 11.4027C18.0004 11.2758 18.009 11.1435 17.9918 11.0132C17.9746 10.883 17.932 10.7574 17.8662 10.6436L16.8898 8.9526C19.102 7.83155 21.5235 7.1838 24 7.05066V9C24 9.26522 24.1054 9.51957 24.2929 9.70711C24.4804 9.89464 24.7348 10 25 10C25.2652 10 25.5196 9.89464 25.7071 9.70711C25.8947 9.51957 26 9.26522 26 9V7.05066C28.4765 7.1838 30.898 7.83157 33.1102 8.95266L32.1338 10.6436C32.0681 10.7573 32.0254 10.8829 32.0082 11.0132C31.991 11.1434 31.9996 11.2758 32.0336 11.4027C32.0676 11.5296 32.1263 11.6486 32.2063 11.7528C32.2862 11.8571 32.386 11.9445 32.4998 12.0102C32.6135 12.0759 32.7392 12.1185 32.8694 12.1356C32.9997 12.1528 33.1321 12.1441 33.259 12.11C33.3858 12.076 33.5048 12.0172 33.609 11.9372C33.7132 11.8572 33.8006 11.7574 33.8662 11.6436L34.8445 9.94936C36.9177 11.3104 38.6896 13.0823 40.0507 15.1555L38.3565 16.1338C38.2426 16.1994 38.1429 16.2868 38.0628 16.391C37.9828 16.4952 37.9241 16.6142 37.89 16.7411C37.856 16.868 37.8473 17.0003 37.8644 17.1306C37.8815 17.2609 37.9241 17.3865 37.9898 17.5003C38.0555 17.6141 38.1429 17.7138 38.2472 17.7938C38.3514 17.8738 38.4704 17.9324 38.5973 17.9664C38.7242 18.0004 38.8566 18.009 38.9869 17.9918C39.1171 17.9747 39.2427 17.932 39.3565 17.8662L41.0474 16.8899C42.1684 19.102 42.8162 21.5236 42.9493 24H41C40.7348 24 40.4804 24.1054 40.2929 24.2929C40.1054 24.4804 40 24.7348 40 25C40 25.2652 40.1054 25.5196 40.2929 25.7071C40.4804 25.8946 40.7348 26 41 26H42.9493C42.8162 28.4765 42.1685 30.898 41.0474 33.1102Z" fill="#000080"/>
<path d="M26.0001 23.2779V14C26.0001 13.7348 25.8948 13.4804 25.7072 13.2929C25.5197 13.1054 25.2653 13 25.0001 13C24.7349 13 24.4805 13.1054 24.293 13.2929C24.1055 13.4804 24.0001 13.7348 24.0001 14V23.2769C23.6966 23.4509 23.4443 23.7018 23.2686 24.0043C23.0929 24.3067 23 24.6502 22.9992 25L22.9993 25.0003L16.7057 28.6338C16.5919 28.6994 16.4921 28.7868 16.412 28.891C16.332 28.9952 16.2733 29.1142 16.2392 29.2411C16.2052 29.368 16.1965 29.5003 16.2136 29.6306C16.2307 29.7609 16.2733 29.8865 16.339 30.0003C16.4047 30.114 16.4922 30.2138 16.5964 30.2938C16.7006 30.3737 16.8196 30.4324 16.9465 30.4664C17.0734 30.5004 17.2058 30.509 17.3361 30.4918C17.4663 30.4746 17.5919 30.432 17.7057 30.3662L24.0082 26.7275C24.2348 26.8592 24.4851 26.9449 24.7448 26.9796C25.0045 27.0144 25.2685 26.9975 25.5217 26.9301C25.7749 26.8626 26.0123 26.7459 26.2203 26.5865C26.4283 26.4272 26.6028 26.2283 26.7338 26.0014C26.8648 25.7745 26.9498 25.524 26.9838 25.2642C27.0179 25.0044 27.0003 24.7404 26.9321 24.4874C26.864 24.2344 26.7466 23.9973 26.5866 23.7898C26.4267 23.5822 26.2274 23.4083 26.0001 23.2779Z" fill="#000080"/>
<path d="M25 0C20.0555 0 15.222 1.46622 11.1108 4.21326C6.99953 6.96029 3.79521 10.8648 1.90302 15.4329C0.0108322 20.0011 -0.484251 25.0277 0.480379 29.8773C1.44501 34.7268 3.82603 39.1814 7.32234 42.6777C10.8187 46.174 15.2732 48.555 20.1228 49.5196C24.9723 50.4843 29.9989 49.9892 34.5671 48.097C39.1353 46.2048 43.0397 43.0005 45.7868 38.8893C48.5338 34.778 50 29.9445 50 25C49.9926 18.3719 47.3562 12.0174 42.6694 7.33057C37.9827 2.64377 31.6281 0.00745597 25 0ZM25 48C20.451 48 16.0042 46.6511 12.2219 44.1238C8.43957 41.5965 5.4916 38.0044 3.75078 33.8017C2.00997 29.599 1.55449 24.9745 2.44195 20.5129C3.32941 16.0514 5.51995 11.9532 8.73656 8.73654C11.9532 5.51994 16.0514 3.3294 20.5129 2.44194C24.9745 1.55448 29.599 2.00995 33.8017 3.75077C38.0044 5.49159 41.5965 8.43955 44.1238 12.2219C46.6511 16.0042 48 20.451 48 25C47.9932 31.0979 45.5678 36.944 41.2559 41.2559C36.944 45.5677 31.0979 47.9931 25 48Z" fill="#000080"/>
</svg>
