<svg width="64" height="64" viewBox="0 0 64 64" fill="none" xmlns="http://www.w3.org/2000/svg">
<path d="M45 50.8591V54.9683C45.3683 54.7994 45.6897 54.543 45.9362 54.2213C46.1827 53.8997 46.3467 53.5227 46.4141 53.1231C46.5131 52.6364 46.4216 52.1303 46.1585 51.7091C45.8954 51.2879 45.4808 50.9837 45 50.8591Z" fill="#75D0C8"/>
<path d="M42.1099 46.1861C42.0492 46.412 42.0493 46.6498 42.1102 46.8756C42.1711 47.1014 42.2906 47.3071 42.4566 47.4718C42.6299 47.6013 42.8117 47.7191 43.0006 47.8245V44.9531C42.7705 45.0804 42.5714 45.2569 42.4175 45.4701C42.2635 45.6832 42.1585 45.9277 42.1099 46.1861Z" fill="#75D0C8"/>
<path d="M60.2217 46.8076L51.2871 37.8726L54.7588 32.6646C55.0596 32.2126 55.2322 31.6876 55.2582 31.1454C55.2843 30.6031 55.1627 30.064 54.9066 29.5853C54.6505 29.1067 54.2693 28.7065 53.8037 28.4273C53.3382 28.1481 52.8056 28.0004 52.2627 28H35.7373C35.1945 28.0004 34.662 28.1481 34.1964 28.4272C33.7309 28.7063 33.3497 29.1065 33.0936 29.5851C32.8375 30.0637 32.7159 30.6028 32.7419 31.145C32.7679 31.6872 32.9405 32.2122 33.2412 32.6641L36.7129 37.8726L27.7783 46.8076C26.4517 48.1341 25.5483 49.8242 25.1823 51.6642C24.8163 53.5042 25.0041 55.4114 25.722 57.1446C26.4399 58.8778 27.6557 60.3592 29.2156 61.4015C30.7754 62.4438 32.6093 63 34.4854 63H53.5147C55.3907 63 57.2246 62.4437 58.7844 61.4015C60.3443 60.3592 61.5601 58.8778 62.278 57.1446C62.9959 55.4114 63.1837 53.5042 62.8177 51.6642C62.4517 49.8242 61.5482 48.1341 60.2217 46.8076H60.2217ZM48.3867 53.4546C48.2364 54.3208 47.8355 55.1238 47.2336 55.7645C46.6317 56.4051 45.8551 56.8552 45 57.0591V58C45 58.2652 44.8947 58.5196 44.7071 58.7071C44.5196 58.8946 44.2652 59 44 59C43.7348 59 43.4804 58.8946 43.2929 58.7071C43.1054 58.5196 43 58.2652 43 58V57.1556C41.9765 57.0911 40.9925 56.7365 40.1631 56.1333C40.0532 56.0614 39.9585 55.9685 39.8845 55.8599C39.8105 55.7514 39.7586 55.6294 39.7318 55.5008C39.6776 55.2411 39.7287 54.9705 39.874 54.7485C40.0193 54.5266 40.2469 54.3714 40.5065 54.3172C40.7662 54.263 41.0368 54.3142 41.2588 54.4595C41.7667 54.8418 42.3681 55.0803 43 55.1499V50.071C42.3681 49.802 41.771 49.4576 41.2217 49.0454C40.7635 48.6572 40.4207 48.1506 40.2308 47.581C40.0408 47.0113 40.011 46.4004 40.1445 45.8149C40.266 45.0897 40.6036 44.4181 41.1131 43.888C41.6226 43.3578 42.2802 42.9938 43 42.8436V42C43 41.7348 43.1054 41.4804 43.2929 41.2929C43.4804 41.1054 43.7348 41 44 41C44.2652 41 44.5196 41.1054 44.7071 41.2929C44.8947 41.4804 45 41.7348 45 42V42.766C45.819 42.9041 46.5881 43.2522 47.2324 43.7763C47.426 43.9556 47.5408 44.2042 47.5519 44.4678C47.5629 44.7314 47.4693 44.9886 47.2915 45.1835C47.1137 45.3784 46.866 45.4951 46.6025 45.5082C46.339 45.5213 46.081 45.4297 45.8848 45.2533C45.621 45.0491 45.3207 44.8971 45 44.8055V48.7291C45.2343 48.8169 45.4696 48.9042 45.6992 48.9854C46.6193 49.2681 47.4025 49.8807 47.8985 50.7055C48.3945 51.5304 48.5684 52.5094 48.3867 53.4546L48.3867 53.4546ZM48 39H40C39.7348 39 39.4804 38.8946 39.2929 38.7071C39.1054 38.5196 39 38.2652 39 38C39 37.7348 39.1054 37.4804 39.2929 37.2929C39.4804 37.1054 39.7348 37 40 37H48C48.2652 37 48.5196 37.1054 48.7071 37.2929C48.8947 37.4804 49 37.7348 49 38C49 38.2652 48.8947 38.5196 48.7071 38.7071C48.5196 38.8946 48.2652 39 48 39Z" fill="#75D0C8"/>
<path d="M26 1C21.0555 1 16.222 2.46622 12.1108 5.21326C7.99953 7.96029 4.79521 11.8648 2.90302 16.4329C1.01083 21.0011 0.515749 26.0277 1.48038 30.8773C2.44501 35.7268 4.82603 40.1814 8.32234 43.6777C11.8187 47.174 16.2732 49.555 21.1228 50.5196C25.9723 51.4843 30.9989 50.9892 35.5671 49.097C40.1353 47.2048 44.0397 44.0005 46.7868 39.8893C49.5338 35.778 51 30.9445 51 26C50.9926 19.3719 48.3562 13.0174 43.6694 8.33057C38.9827 3.64377 32.6281 1.00746 26 1ZM34.9258 16.9007C31.6649 16.3014 30.9066 14.1851 29.992 11.6596C30.2726 11.2509 30.5366 10.8279 30.7839 10.3904C31.9137 11.1007 32.8714 12.0533 33.5877 13.1793C34.3041 14.3052 34.7611 15.5764 34.9258 16.9007ZM17.0647 16.9629C17.2162 15.6202 17.6691 14.329 18.3897 13.1859C19.1103 12.0428 20.0798 11.0773 21.2259 10.3616C22.372 9.64578 23.665 9.19825 25.0084 9.05238C26.3517 8.90651 27.7107 9.06608 28.9837 9.51917C27.7638 11.6456 26.0374 13.4378 23.9581 14.7364C21.8787 16.035 19.5108 16.7998 17.0647 16.9629ZM28.4361 13.601C28.926 15.0027 29.794 16.2416 30.9441 17.1807C32.0942 18.1199 33.4816 18.7226 34.9529 18.9224C34.7252 21.1344 33.6866 23.1837 32.0374 24.6752C30.3882 26.1667 28.2451 26.9949 26.0215 27C23.7979 27.005 21.6511 26.1867 19.9951 24.7027C18.3391 23.2187 17.2912 21.1741 17.0534 18.9632C21.3977 18.7128 25.4767 16.7913 28.4361 13.601ZM30.8939 48.4707L27.0964 34.23L30.7084 29.715C33.5969 30.6019 36.1744 32.2906 38.1409 34.5847C40.1074 36.8788 41.3823 39.6841 41.8172 42.6743C38.7746 45.5689 34.9965 47.5737 30.8939 48.4707ZM26 29C26.8533 29.0043 27.7049 29.0766 28.5467 29.2161L26 32.3994L23.4533 29.2161C24.2951 29.0766 25.1467 29.0043 26 29ZM21.2916 29.715L24.9036 34.2299L21.1061 48.4707C17.0037 47.5736 13.2257 45.5689 10.1832 42.6744C10.6179 39.6842 11.8927 36.8789 13.8592 34.5847C15.8257 32.2906 18.4031 30.6018 21.2916 29.715ZM23.086 48.809L26 37.8815L28.914 48.809C26.9797 49.0637 25.0203 49.0637 23.086 48.809ZM43.514 40.8843C42.7912 37.7912 41.2614 34.9451 39.0805 32.6357C36.8996 30.3264 34.1455 28.6364 31.0988 27.738C33.2792 26.5974 35.0142 24.7587 36.0263 22.5158C37.0385 20.2729 37.2694 17.7554 36.6821 15.3658C36.0949 12.9762 34.7233 10.8526 32.7868 9.33437C30.8503 7.81616 28.4607 6.9911 26 6.9911C23.5393 6.9911 21.1497 7.81616 19.2132 9.33437C17.2767 10.8526 15.9052 12.9762 15.3179 15.3658C14.7306 17.7554 14.9615 20.2729 15.9737 22.5158C16.9858 24.7587 18.7208 26.5974 20.9012 27.738C17.8546 28.6365 15.1006 30.3264 12.9197 32.6357C10.7388 34.9449 9.20887 37.7909 8.48579 40.8838C5.63903 37.5393 3.80936 33.4497 3.21308 29.0984C2.6168 24.7471 3.27885 20.316 5.12095 16.3291C6.96306 12.3421 9.9082 8.96586 13.6082 6.59956C17.3082 4.23326 21.6084 2.97582 26.0004 2.97587C30.3923 2.97592 34.6925 4.23348 38.3924 6.59987C42.0924 8.96626 45.0374 12.3425 46.8794 16.3296C48.7214 20.3166 49.3834 24.7477 48.787 29.099C48.1906 33.4503 46.3608 37.5398 43.514 40.8842L43.514 40.8843Z" fill="#0B2577"/>
<path d="M37 41H32C31.7348 41 31.4804 41.1054 31.2929 41.2929C31.1054 41.4804 31 41.7348 31 42C31 42.2652 31.1054 42.5196 31.2929 42.7071C31.4804 42.8946 31.7348 43 32 43H37C37.2652 43 37.5196 42.8946 37.7071 42.7071C37.8946 42.5196 38 42.2652 38 42C38 41.7348 37.8946 41.4804 37.7071 41.2929C37.5196 41.1054 37.2652 41 37 41Z" fill="#0B2577"/>
</svg>
