<svg width="43" height="43" viewBox="0 0 43 43" fill="none" xmlns="http://www.w3.org/2000/svg">
<path d="M35.8032 15.5059H8.01598C7.36875 15.5059 6.84375 16.0317 6.84375 16.6789V33.6577H36.9755V16.6789C36.9755 16.0317 36.4505 15.5059 35.8032 15.5059ZM21.9334 30.7341C21.2542 30.7341 20.7029 30.1829 20.7029 29.5037C20.7029 28.8236 21.2542 28.2732 21.9334 28.2732C22.6126 28.2732 23.1639 28.8236 23.1639 29.5037C23.1639 30.1829 22.6126 30.7341 21.9334 30.7341ZM26.2843 26.8934C25.8045 27.3733 25.0241 27.3739 24.5436 26.8934C23.8472 26.1962 22.9194 25.8123 21.9334 25.8123C20.9474 25.8123 20.0196 26.1962 19.3232 26.8934C18.8425 27.3741 18.0632 27.3741 17.5825 26.8934C17.1026 26.4127 17.1026 25.6334 17.5825 25.1536C18.7448 23.9912 20.2895 23.3513 21.9334 23.3513C23.5773 23.3513 25.122 23.9912 26.2843 25.1536C26.7642 25.6334 26.7642 26.4127 26.2843 26.8934ZM29.7633 23.4137C29.286 23.8926 28.5049 23.8952 28.0234 23.4137C26.3975 21.7862 24.2344 20.8904 21.9334 20.8904C19.6324 20.8904 17.4693 21.7862 15.8434 23.4137C15.3627 23.8936 14.5834 23.8944 14.1035 23.4137C13.6228 22.9338 13.622 22.1545 14.1027 21.6738C16.1937 19.582 18.9745 18.4295 21.9334 18.4295C24.8923 18.4295 27.6731 19.582 29.7641 21.6738C30.2448 22.1545 30.244 22.9338 29.7633 23.4137Z" fill="#2F6CE9"/>
<path d="M39.8685 37.3076V37.9052C39.8685 40.4203 37.8225 42.4662 35.3075 42.4662H8.55711C6.04204 42.4662 3.99609 40.4202 3.99609 37.9052V37.3076C3.99609 36.6505 4.52946 36.1172 5.18653 36.1172H38.6781C39.3352 36.1171 39.8685 36.6505 39.8685 37.3076Z" fill="#2F6CE9"/>
<path d="M42.4648 17.9066C42.4648 19.9287 41.5978 21.749 40.2155 23.0164C39.9711 23.2395 39.7111 23.4462 39.4362 23.6332V16.6778C39.4362 14.6738 37.8063 13.0438 35.8031 13.0438H8.01582C6.01262 13.0438 4.38266 14.6738 4.38266 16.6778V24.1476C3.91508 23.922 3.47621 23.6447 3.07426 23.3232C1.48367 22.0541 0.464844 20.0993 0.464844 17.9066C0.464844 17.631 0.48125 17.3595 0.512422 17.0929C0.824141 14.4252 2.65262 12.2219 5.11273 11.3655C5.03727 10.2121 5.2973 9.12438 5.80508 8.19086C6.14059 7.57316 6.58355 7.02356 7.1102 6.56582C8.13723 5.6725 9.47844 5.13191 10.9452 5.13191C11.8491 5.13191 12.7047 5.33781 13.4684 5.70367C14.4093 3.54707 16.1968 1.84492 18.41 1.01723C19.3607 0.661211 20.3902 0.466797 21.4648 0.466797C24.2137 0.466797 26.6656 1.7391 28.2636 3.72672C28.7459 4.32555 29.1495 4.99 29.4613 5.70367C29.837 5.52402 30.234 5.38293 30.6491 5.28531C31.0781 5.18524 31.5252 5.13191 31.9845 5.13191C34.2068 5.13191 36.137 6.37141 37.1263 8.1925C37.6332 9.12684 37.8932 10.2138 37.8178 11.3655C40.2762 12.2219 42.1047 14.4244 42.4173 17.0913C42.4484 17.3587 42.4648 17.631 42.4648 17.9066Z" fill="#2F6CE9"/>
</svg>
