<svg width="16" height="16" viewBox="0 0 16 16" fill="none" xmlns="http://www.w3.org/2000/svg">
<g opacity="0.75" clip-path="url(#clip0_2500_2865)">
<path d="M3.50364 5.02075H0.485292C0.225875 5.02075 0.015625 5.23071 0.015625 5.4895V15.5312C0.015625 15.7902 0.225875 16 0.485292 16H3.50364C3.76306 16 3.97331 15.7902 3.97331 15.5312V5.4895C3.97331 5.23071 3.76306 5.02075 3.50364 5.02075ZM3.03397 15.0625H0.95496V5.95825H3.03397V15.0625Z" fill="#2B2B2B"/>
<path d="M1.99459 0C0.903345 0 0.015625 0.885986 0.015625 1.97485C0.015625 3.06396 0.903345 3.94983 1.99459 3.94983C3.08571 3.94983 3.97331 3.06384 3.97331 1.97485C3.97331 0.885986 3.08571 0 1.99459 0ZM1.99459 3.01233C1.42132 3.01233 0.95496 2.547 0.95496 1.97485C0.95496 1.40283 1.42132 0.9375 1.99459 0.9375C2.56773 0.9375 3.03397 1.40283 3.03397 1.97485C3.03397 2.547 2.56773 3.01233 1.99459 3.01233Z" fill="#2B2B2B"/>
<path d="M11.0507 4.95447C10.3367 4.95447 9.6331 5.12622 9.00297 5.44751C8.98156 5.20837 8.78036 5.02075 8.53513 5.02075H5.51654C5.25725 5.02075 5.04688 5.23071 5.04688 5.4895V15.5312C5.04688 15.7902 5.25725 16 5.51654 16H8.53513C8.79455 16 9.0048 15.7902 9.0048 15.5312V10.0083C9.0048 9.29785 9.58406 8.71985 10.2959 8.71985C11.0077 8.71985 11.5867 9.29785 11.5867 10.0083V15.5312C11.5867 15.7902 11.7971 16 12.0564 16H15.0749C15.3343 16 15.5446 15.7902 15.5446 15.5312V9.43958C15.5446 6.96643 13.5287 4.95447 11.0507 4.95447ZM14.6052 15.0625H12.5262V10.0083C12.5262 8.78088 11.5257 7.78235 10.296 7.78235C9.06608 7.78235 8.06547 8.78088 8.06547 10.0083V15.0625H5.98633V5.95825H8.06547V6.30457C8.06547 6.48486 8.16906 6.64917 8.33198 6.72717C8.49477 6.80518 8.68802 6.78296 8.82904 6.67029C9.46505 6.16113 10.2334 5.89197 11.0507 5.89197C13.0107 5.89197 14.6052 7.4834 14.6052 9.43958V15.0625Z" fill="#2B2B2B"/>
</g>
<defs>
<clipPath id="clip0_2500_2865">
<rect width="16" height="16" fill="white"/>
</clipPath>
</defs>
</svg>
