<svg width="62" height="62" viewBox="0 0 62 62" fill="none" xmlns="http://www.w3.org/2000/svg">
<path d="M30 40H34V44H30V40Z" fill="#75D0C8"/>
<path d="M30 52H34V56H30V52Z" fill="#75D0C8"/>
<path d="M59 33.0001H41L35.293 27.2931C35.1531 27.1534 34.975 27.0582 34.781 27.0197C34.5871 26.9811 34.3861 27.0009 34.2034 27.0766C34.0207 27.1523 33.8646 27.2804 33.7547 27.4448C33.6448 27.6091 33.5861 27.8024 33.586 28.0001V33.0001H25C24.2046 33.001 23.4421 33.3173 22.8796 33.8797C22.3172 34.4422 22.0009 35.2047 22 36.0001V59.0001C22.0009 59.7955 22.3172 60.558 22.8796 61.1205C23.4421 61.6829 24.2046 61.9992 25 62.0001H59C59.7954 61.9992 60.5579 61.6829 61.1204 61.1205C61.6828 60.558 61.9991 59.7955 62 59.0001V36.0001C61.9991 35.2047 61.6828 34.4422 61.1204 33.8797C60.5579 33.3173 59.7954 33.001 59 33.0001ZM36 57.0001C36 57.1314 35.9742 57.2615 35.924 57.3828C35.8737 57.5042 35.8 57.6144 35.7072 57.7073C35.6143 57.8002 35.5041 57.8738 35.3827 57.9241C35.2614 57.9743 35.1313 58.0001 35 58.0001H29C28.8687 58.0001 28.7386 57.9743 28.6173 57.9241C28.4959 57.8738 28.3857 57.8002 28.2928 57.7073C28.2 57.6144 28.1263 57.5042 28.0761 57.3828C28.0258 57.2615 28 57.1314 28 57.0001V51.0001C28 50.8688 28.0258 50.7387 28.0761 50.6174C28.1263 50.496 28.2 50.3858 28.2928 50.2929C28.3857 50.2001 28.4959 50.1264 28.6173 50.0762C28.7386 50.0259 28.8687 50.0001 29 50.0001H35C35.1313 50.0001 35.2614 50.0259 35.3827 50.0762C35.5041 50.1264 35.6143 50.2001 35.7072 50.2929C35.8 50.3858 35.8737 50.496 35.924 50.6174C35.9742 50.7387 36 50.8688 36 51.0001V57.0001ZM36 45.0001C36 45.1314 35.9742 45.2615 35.924 45.3828C35.8737 45.5042 35.8 45.6144 35.7072 45.7073C35.6143 45.8002 35.5041 45.8738 35.3827 45.9241C35.2614 45.9743 35.1313 46.0001 35 46.0001H29C28.8687 46.0001 28.7386 45.9743 28.6173 45.9241C28.4959 45.8738 28.3857 45.8002 28.2928 45.7073C28.2 45.6144 28.1263 45.5042 28.0761 45.3828C28.0258 45.2615 28 45.1314 28 45.0001V39.0001C28 38.8688 28.0258 38.7387 28.0761 38.6174C28.1263 38.496 28.2 38.3858 28.2928 38.2929C28.3857 38.2001 28.4959 38.1264 28.6173 38.0762C28.7386 38.0259 28.8687 38.0001 29 38.0001H35C35.1313 38.0001 35.2614 38.0259 35.3827 38.0762C35.5041 38.1264 35.6143 38.2001 35.7072 38.2929C35.8 38.3858 35.8737 38.496 35.924 38.6174C35.9742 38.7387 36 38.8688 36 39.0001V45.0001ZM51 58.0001H39C38.7348 58.0001 38.4804 57.8948 38.2929 57.7072C38.1054 57.5197 38 57.2653 38 57.0001C38 56.7349 38.1054 56.4805 38.2929 56.293C38.4804 56.1055 38.7348 56.0001 39 56.0001H51C51.2652 56.0001 51.5196 56.1055 51.7071 56.293C51.8946 56.4805 52 56.7349 52 57.0001C52 57.2653 51.8946 57.5197 51.7071 57.7072C51.5196 57.8948 51.2652 58.0001 51 58.0001ZM55 52.0001H39C38.7348 52.0001 38.4804 51.8948 38.2929 51.7072C38.1054 51.5197 38 51.2653 38 51.0001C38 50.7349 38.1054 50.4805 38.2929 50.293C38.4804 50.1055 38.7348 50.0001 39 50.0001H55C55.2652 50.0001 55.5196 50.1055 55.7071 50.293C55.8946 50.4805 56 50.7349 56 51.0001C56 51.2653 55.8946 51.5197 55.7071 51.7072C55.5196 51.8948 55.2652 52.0001 55 52.0001ZM38 45.0001C38 44.8688 38.0258 44.7387 38.076 44.6174C38.1263 44.496 38.2 44.3858 38.2928 44.2929C38.3857 44.2001 38.4959 44.1264 38.6173 44.0762C38.7386 44.0259 38.8687 44.0001 39 44.0001H51C51.2652 44.0001 51.5196 44.1055 51.7071 44.293C51.8946 44.4805 52 44.7349 52 45.0001C52 45.2653 51.8946 45.5197 51.7071 45.7072C51.5196 45.8948 51.2652 46.0001 51 46.0001H39C38.8687 46.0001 38.7386 45.9743 38.6173 45.9241C38.4959 45.8738 38.3857 45.8002 38.2928 45.7073C38.2 45.6144 38.1263 45.5042 38.076 45.3828C38.0258 45.2615 38 45.1314 38 45.0001ZM55 40.0001H39C38.7348 40.0001 38.4804 39.8947 38.2929 39.7072C38.1054 39.5197 38 39.2653 38 39.0001C38 38.7349 38.1054 38.4805 38.2929 38.293C38.4804 38.1055 38.7348 38.0001 39 38.0001H55C55.2652 38.0001 55.5196 38.1055 55.7071 38.293C55.8946 38.4805 56 38.7349 56 39.0001C56 39.2653 55.8946 39.5197 55.7071 39.7072C55.5196 39.8947 55.2652 40.0001 55 40.0001Z" fill="#75D0C8"/>
<path d="M47 0H3C2.20462 0.000868196 1.44206 0.317218 0.879639 0.879639C0.317218 1.44206 0.000868196 2.20462 0 3V39C0.000868196 39.7954 0.317218 40.5579 0.879639 41.1204C1.44206 41.6828 2.20462 41.9991 3 42V48H1C0.734784 48 0.48043 48.1054 0.292893 48.2929C0.105357 48.4804 0 48.7348 0 49C0 49.2652 0.105357 49.5196 0.292893 49.7071C0.48043 49.8946 0.734784 50 1 50H49C49.2652 50 49.5196 49.8946 49.7071 49.7071C49.8946 49.5196 50 49.2652 50 49C50 48.7348 49.8946 48.4804 49.7071 48.2929C49.5196 48.1054 49.2652 48 49 48H23V42H47C47.7954 41.9991 48.5579 41.6828 49.1204 41.1204C49.6828 40.5579 49.9991 39.7954 50 39V3C49.9991 2.20462 49.6828 1.44206 49.1204 0.879639C48.5579 0.317218 47.7954 0.000868196 47 0ZM5 46H8V48H5V46ZM10 48V41C10 40.7348 9.89464 40.4804 9.70711 40.2929C9.51957 40.1054 9.26522 40 9 40C8.73478 40 8.48043 40.1054 8.29289 40.2929C8.10536 40.4804 8 40.7348 8 41V44H5V40C5.00299 38.317 5.61177 36.6914 6.71498 35.4204C7.8182 34.1495 9.3421 33.3182 11.0079 33.0786C11.0278 34.1321 11.4629 35.1351 12.2185 35.8694C12.9742 36.6038 13.9893 37.0099 15.0429 36.9996C16.0965 36.9892 17.1035 36.5631 17.8445 35.8141C18.5856 35.0651 19.0009 34.0537 19 33H26V36H22C21.8687 36 21.7386 36.0258 21.6173 36.076C21.4959 36.1263 21.3857 36.2 21.2928 36.2928C21.2 36.3857 21.1263 36.4959 21.0761 36.6173C21.0258 36.7386 21 36.8687 21 37V48H10ZM15.0882 23.4418C15.6744 24.1707 16.4064 24.7692 17.2373 25.1987C18.0683 25.6283 18.9798 25.8795 19.9135 25.9363C19.486 28.4169 17.457 31 15 31C13.8327 30.9976 12.703 30.587 11.8066 29.8393C10.9101 29.0917 10.3035 28.054 10.0916 26.9061C11.1311 26.7409 12.1201 26.3437 12.9851 25.7439C13.8501 25.1442 14.5689 24.3573 15.0882 23.4418ZM10.1448 24.8552C10.3589 23.9537 10.8192 23.1295 11.4744 22.4744C12.1295 21.8192 12.9537 21.3589 13.8552 21.1448C13.6411 22.0463 13.1808 22.8705 12.5256 23.5256C11.8705 24.1808 11.0463 24.6411 10.1448 24.8552ZM16.136 21.084C17.8395 21.3321 19.4075 22.1747 19.864 23.916C18.1605 23.6679 16.5925 22.8253 16.136 21.084ZM17 33C17 33.5304 16.7893 34.0391 16.4142 34.4142C16.0391 34.7893 15.5304 35 15 35C14.4696 35 13.9609 34.7893 13.5858 34.4142C13.2107 34.0391 13 33.5304 13 33H17ZM33 33C33.3978 33 33.7794 33.158 34.0607 33.4393C34.342 33.7206 34.5 34.1022 34.5 34.5C34.5 34.8978 34.342 35.2794 34.0607 35.5607C33.7794 35.842 33.3978 36 33 36H28V33H33ZM48 39C47.9997 39.2651 47.8943 39.5193 47.7068 39.7068C47.5193 39.8943 47.2651 39.9997 47 40H23V38H33C33.9283 38 34.8185 37.6312 35.4749 36.9749C36.1312 36.3185 36.5 35.4283 36.5 34.5C36.5 33.5717 36.1312 32.6815 35.4749 32.0251C34.8185 31.3687 33.9283 31 33 31H19.4743C21.0499 29.3948 21.9533 27.2488 22 25C22 21.4111 19.187 19 15 19C13.5876 18.9979 12.2078 19.4236 11.0422 20.2213C9.87662 21.0189 8.98003 22.1509 8.47056 23.4682C7.96109 24.7854 7.86264 26.2261 8.18819 27.6005C8.51374 28.9748 9.24801 30.2182 10.2942 31.167C8.24284 31.5652 6.3936 32.664 5.06298 34.2753C3.73237 35.8866 3.00311 37.9103 3 40C2.73486 39.9997 2.48066 39.8943 2.29319 39.7068C2.10571 39.5193 2.00026 39.2651 2 39V3C2.00026 2.73486 2.10571 2.48066 2.29319 2.29319C2.48066 2.10571 2.73486 2.00026 3 2H47C47.2651 2.00026 47.5193 2.10571 47.7068 2.29319C47.8943 2.48066 47.9997 2.73486 48 3V39Z" fill="#0B2577"/>
<path d="M42.9123 10.9715C42.3206 10.5429 41.8806 9.93717 41.6559 9.24197C40.762 7.19059 40.055 6.71566 37.8981 6.50369C37.1705 6.50397 36.4614 6.27466 35.8717 5.84841C33.9668 4.71981 33.0663 4.7016 31.1305 5.84841C30.5409 6.27469 29.8318 6.50401 29.1042 6.50369C26.9577 6.71464 26.2405 7.184 25.3463 9.24197C25.1207 9.93709 24.6808 10.5429 24.0895 10.9724C22.3897 12.4685 22.1775 13.2983 22.6354 15.3816C22.866 16.1092 22.866 16.8903 22.6354 17.6179C22.1794 19.6926 22.3835 20.5262 24.09 22.0281C24.6817 22.4567 25.1217 23.0624 25.3463 23.7576C26.2403 25.809 26.9473 26.2839 29.1042 26.4959C29.8318 26.4956 30.5409 26.7249 31.1305 27.1511C33.0355 28.2797 33.936 28.298 35.8717 27.1511C36.4614 26.7249 37.1705 26.4956 37.8981 26.4959C40.0446 26.2849 40.7618 25.8156 41.6559 23.7576C41.8815 23.0625 42.3215 22.4567 42.9128 22.0271C44.6126 20.531 44.8248 19.7013 44.3669 17.6179C44.1362 16.8903 44.1362 16.1092 44.3669 15.3816C44.8229 13.307 44.6188 12.4734 42.9123 10.9715ZM42.4137 18.0467C42.7183 19.4398 42.7022 19.5478 41.591 20.5271C40.7775 21.1495 40.1627 21.995 39.8214 22.9607C39.2409 24.2953 39.1535 24.3642 37.7028 24.5056C36.6831 24.5324 35.693 24.8536 34.8517 25.4304C33.575 26.1881 33.4257 26.1872 32.1506 25.4304C31.3093 24.8535 30.3192 24.5323 29.2995 24.5056C27.851 24.3644 27.7624 24.299 27.1808 22.9597C26.8394 21.9944 26.2246 21.1492 25.4113 20.5271C24.3039 19.5512 24.2811 19.4491 24.589 18.0467C24.8801 17.0359 24.8799 15.9636 24.5885 14.9529C24.2839 13.5597 24.3001 13.4517 25.4113 12.4724C26.2247 11.8501 26.8396 11.0045 27.1808 10.0388C27.7614 8.70424 27.8488 8.63532 29.2995 8.49392C30.3192 8.46718 31.3093 8.146 32.1506 7.56912C33.4273 6.81142 33.5766 6.81235 34.8517 7.56912C35.6929 8.14604 36.6831 8.46722 37.7028 8.49392C39.1513 8.63511 39.2399 8.70054 39.8214 10.0398C40.1629 11.0051 40.7777 11.8503 41.591 12.4724C42.6984 13.4484 42.7211 13.5504 42.4132 14.9529C42.1199 15.9633 42.1201 17.0363 42.4137 18.0467Z" fill="#0B2577"/>
<path d="M36.1693 12.4452L32.9535 17.2694L30.8011 14.4003C30.7225 14.2948 30.6239 14.2059 30.5109 14.1387C30.3979 14.0714 30.2727 14.0271 30.1426 14.0083C30.0124 13.9895 29.8798 13.9965 29.7524 14.0291C29.625 14.0616 29.5052 14.1189 29.4 14.1978C29.2948 14.2767 29.2062 14.3756 29.1392 14.4888C29.0723 14.602 29.0283 14.7273 29.0099 14.8575C28.9914 14.9877 28.9989 15.1202 29.0318 15.2476C29.0646 15.3749 29.1223 15.4945 29.2015 15.5995L32.2015 19.5995C32.2974 19.7275 32.4226 19.8306 32.5666 19.9002C32.7106 19.9699 32.8692 20.0039 33.029 19.9995C33.1889 19.9951 33.3454 19.9524 33.4854 19.875C33.6253 19.7975 33.7446 19.6877 33.8333 19.5546L37.8333 13.5546C37.9778 13.3339 38.0292 13.0651 37.9764 12.8066C37.9236 12.5482 37.7709 12.3211 37.5514 12.1748C37.3319 12.0285 37.0635 11.9748 36.8047 12.0254C36.5458 12.0761 36.3174 12.227 36.1693 12.4452Z" fill="#0B2577"/>
<path d="M19 6H7C6.73478 6 6.48043 6.10536 6.29289 6.29289C6.10536 6.48043 6 6.73478 6 7C6 7.26522 6.10536 7.51957 6.29289 7.70711C6.48043 7.89464 6.73478 8 7 8H19C19.2652 8 19.5196 7.89464 19.7071 7.70711C19.8946 7.51957 20 7.26522 20 7C20 6.73478 19.8946 6.48043 19.7071 6.29289C19.5196 6.10536 19.2652 6 19 6Z" fill="#0B2577"/>
<path d="M15 10H7C6.73478 10 6.48043 10.1054 6.29289 10.2929C6.10536 10.4804 6 10.7348 6 11C6 11.2652 6.10536 11.5196 6.29289 11.7071C6.48043 11.8946 6.73478 12 7 12H15C15.2652 12 15.5196 11.8946 15.7071 11.7071C15.8946 11.5196 16 11.2652 16 11C16 10.7348 15.8946 10.4804 15.7071 10.2929C15.5196 10.1054 15.2652 10 15 10Z" fill="#0B2577"/>
</svg>
