<svg width="62" height="62" viewBox="0 0 62 62" fill="none" xmlns="http://www.w3.org/2000/svg">
<path d="M59 25H47.5801L44.4439 19.5117C44.181 19.0529 43.8019 18.6716 43.3446 18.4062C42.8873 18.1408 42.3681 18.0007 41.8394 18H35C34.2046 18.0009 33.4421 18.3172 32.8796 18.8796C32.3172 19.4421 32.0009 20.2046 32 21V47C32.0009 47.7954 32.3172 48.5579 32.8796 49.1204C33.4421 49.6828 34.2046 49.9991 35 50H59C59.7954 49.9991 60.5579 49.6828 61.1204 49.1204C61.6828 48.5579 61.9991 47.7954 62 47V28C61.9991 27.2046 61.6828 26.4421 61.1204 25.8796C60.5579 25.3172 59.7954 25.0009 59 25ZM57 45H37C36.7348 45 36.4804 44.8946 36.2929 44.7071C36.1054 44.5196 36 44.2652 36 44C36 43.7348 36.1054 43.4804 36.2929 43.2929C36.4804 43.1054 36.7348 43 37 43H57C57.2652 43 57.5196 43.1054 57.7071 43.2929C57.8946 43.4804 58 43.7348 58 44C58 44.2652 57.8946 44.5196 57.7071 44.7071C57.5196 44.8946 57.2652 45 57 45Z" fill="#75D0C8"/>
<path d="M30 47V30H21C20.2051 30.0023 19.4434 30.3191 18.8813 30.8813C18.3191 31.4434 18.0023 32.2051 18 33V59C18.0023 59.7949 18.3192 60.5566 18.8813 61.1187C19.4434 61.6808 20.2051 61.9977 21 62H45C45.7949 61.9977 46.5566 61.6809 47.1187 61.1187C47.6809 60.5566 47.9977 59.7949 48 59V52H35C33.6741 51.9995 32.4026 51.4726 31.465 50.535C30.5274 49.5974 30.0005 48.3259 30 47ZM44 56C44 56.2652 43.8946 56.5196 43.7071 56.7071C43.5196 56.8946 43.2652 57 43 57H23C22.7348 57 22.4804 56.8946 22.2929 56.7071C22.1054 56.5196 22 56.2652 22 56C22 55.7348 22.1054 55.4804 22.2929 55.2929C22.4804 55.1054 22.7348 55 23 55H43C43.2652 55 43.5196 55.1054 43.7071 55.2929C43.8946 55.4804 44 55.7348 44 56Z" fill="#75D0C8"/>
<path d="M47 4.99999H23.411C22.8171 3.52337 21.795 2.25819 20.4763 1.36716C19.1575 0.476133 17.6023 0 16.0107 0C14.4192 0 12.864 0.476133 11.5452 1.36716C10.2264 2.25819 9.20437 3.52337 8.61047 4.99999H3C2.20462 5.00085 1.44206 5.3172 0.879639 5.87963C0.317218 6.44205 0.000868196 7.2046 0 7.99999V47C0.000868196 47.7954 0.317218 48.5579 0.879639 49.1203C1.44206 49.6828 2.20462 49.9991 3 50H47C47.7954 49.9991 48.5579 49.6828 49.1204 49.1203C49.6828 48.5579 49.9991 47.7954 50 47V7.99999C49.9991 7.2046 49.6828 6.44205 49.1204 5.87963C48.5579 5.3172 47.7954 5.00085 47 4.99999ZM16 1.99999C17.0519 2.00121 18.085 2.27904 18.9956 2.8056C19.9063 3.33216 20.6624 4.08892 21.1882 4.99999H10.8267C11.3536 4.0932 12.1079 3.33953 13.0152 2.81342C13.9225 2.2873 14.9513 2.00693 16 1.99999ZM48 47C47.9997 47.2651 47.8942 47.5193 47.7067 47.7067C47.5193 47.8942 47.2651 47.9996 47 48H3C2.73489 47.9996 2.48074 47.8942 2.29327 47.7067C2.10581 47.5193 2.00034 47.2651 2 47V7.99999C2.00034 7.73488 2.10581 7.48072 2.29327 7.29326C2.48074 7.1058 2.73489 7.00033 3 6.99999H21.9097C21.9677 7.3302 21.9979 7.66471 22 7.99999V20C22 21.5913 21.3679 23.1174 20.2426 24.2426C19.1174 25.3678 17.5913 26 16 26C14.4087 26 12.8826 25.3678 11.7574 24.2426C10.6321 23.1174 10 21.5913 10 20V12C10 11.7348 9.89464 11.4804 9.70711 11.2929C9.51957 11.1053 9.26522 11 9 11C8.73478 11 8.48043 11.1053 8.29289 11.2929C8.10536 11.4804 8 11.7348 8 12V20C8 22.1217 8.84285 24.1565 10.3431 25.6568C11.8434 27.1571 13.8783 28 16 28C18.1217 28 20.1566 27.1571 21.6569 25.6568C23.1571 24.1565 24 22.1217 24 20V7.99999C23.9978 7.66553 23.9746 7.33154 23.9305 6.99999H47C47.2651 7.00033 47.5193 7.1058 47.7067 7.29326C47.8942 7.48072 47.9997 7.73488 48 7.99999V47Z" fill="#000080"/>
<path d="M42 16H29C28.7348 16 28.4804 16.1054 28.2929 16.2929C28.1054 16.4804 28 16.7348 28 17C28 17.2652 28.1054 17.5196 28.2929 17.7071C28.4804 17.8946 28.7348 18 29 18H42C42.2652 18 42.5196 17.8946 42.7071 17.7071C42.8946 17.5196 43 17.2652 43 17C43 16.7348 42.8946 16.4804 42.7071 16.2929C42.5196 16.1054 42.2652 16 42 16Z" fill="#000080"/>
<path d="M42 24H29C28.7348 24 28.4804 24.1054 28.2929 24.2929C28.1054 24.4804 28 24.7348 28 25C28 25.2652 28.1054 25.5196 28.2929 25.7071C28.4804 25.8946 28.7348 26 29 26H42C42.2652 26 42.5196 25.8946 42.7071 25.7071C42.8946 25.5196 43 25.2652 43 25C43 24.7348 42.8946 24.4804 42.7071 24.2929C42.5196 24.1054 42.2652 24 42 24Z" fill="#000080"/>
<path d="M42 32H8C7.73478 32 7.48043 32.1054 7.29289 32.2929C7.10536 32.4804 7 32.7348 7 33C7 33.2652 7.10536 33.5196 7.29289 33.7071C7.48043 33.8946 7.73478 34 8 34H42C42.2652 34 42.5196 33.8946 42.7071 33.7071C42.8946 33.5196 43 33.2652 43 33C43 32.7348 42.8946 32.4804 42.7071 32.2929C42.5196 32.1054 42.2652 32 42 32Z" fill="#000080"/>
<path d="M32 40H8C7.73478 40 7.48043 40.1054 7.29289 40.2929C7.10536 40.4804 7 40.7348 7 41C7 41.2652 7.10536 41.5196 7.29289 41.7071C7.48043 41.8946 7.73478 42 8 42H32C32.2652 42 32.5196 41.8946 32.7071 41.7071C32.8946 41.5196 33 41.2652 33 41C33 40.7348 32.8946 40.4804 32.7071 40.2929C32.5196 40.1054 32.2652 40 32 40Z" fill="#000080"/>
</svg>
