<svg width="16" height="16" viewBox="0 0 16 16" fill="none" xmlns="http://www.w3.org/2000/svg">
<path d="M15.9983 7.67622C15.9504 5.58308 15.0917 3.63252 13.5801 2.18391C12.0707 0.737378 10.088 -0.0374024 7.99915 0.00141592C5.90942 -0.0377686 3.92773 0.7375 2.41833 2.18391C0.906738 3.63252 0.0479736 5.58308 0.00012207 7.6761L0 7.68269V7.68928C0.0109863 9.82246 0.924438 11.8504 2.51001 13.2718V15.2058C2.51001 15.5811 2.77209 15.9082 3.13318 15.9833C3.18665 15.9945 3.24048 16 3.29407 16C3.43933 16 3.58215 15.9594 3.70789 15.8808L5.26221 14.9099C6.13879 15.2167 7.05347 15.3723 7.9834 15.3723H7.99512C8.04651 15.3732 8.09753 15.3737 8.1488 15.3737C10.1833 15.3736 12.1068 14.6016 13.5801 13.1898C15.0917 11.7412 15.9504 9.79072 15.9983 7.69758L15.9985 7.68684L15.9983 7.67622ZM12.9308 12.5123C11.6334 13.7556 9.93994 14.4354 8.14832 14.4354C8.10181 14.4354 8.05518 14.4349 8.00842 14.434L8.0033 14.4339H7.99829C7.13367 14.4356 6.2821 14.2854 5.4696 13.9874C5.26855 13.9136 5.04956 13.9362 4.8689 14.0491L3.44836 14.9365V13.1575C3.44836 12.9592 3.36206 12.7703 3.21167 12.6395C1.77832 11.3935 0.950073 9.59016 0.938477 7.69099C0.982056 5.85041 1.73804 4.13557 3.06763 2.8614C4.39868 1.58589 6.14758 0.90376 7.98987 0.93977L7.99915 0.939892L8.00842 0.93977C9.85193 0.903393 11.5997 1.58589 12.9308 2.8614C14.2592 4.13447 15.015 5.84797 15.0598 7.68684C15.0151 9.52583 14.2593 11.2392 12.9308 12.5123Z" fill="#2B2B2B"/>
<path d="M12.3295 5.11597L9.35083 6.74L7.56653 5.20997C7.25782 4.94532 6.79078 4.96326 6.50342 5.25074L2.73743 9.01673C2.58997 9.16517 2.50904 9.36195 2.50977 9.57105C2.51038 9.78028 2.59241 9.97669 2.74073 10.124C2.89197 10.2743 3.08985 10.3527 3.29102 10.3527C3.41871 10.3527 3.54761 10.3212 3.66688 10.2565L6.64563 8.63245L8.43177 10.1631C8.74048 10.4277 9.20752 10.4098 9.49488 10.1223L13.2615 6.35572C13.533 6.08167 13.5629 5.64307 13.3314 5.33472C13.0999 5.02491 12.6692 4.93092 12.3295 5.11597ZM8.93311 9.35694L7.12391 7.80653C6.99744 7.69813 6.83753 7.64222 6.67664 7.64222C6.56434 7.64222 6.45154 7.66944 6.34949 7.7251L4.16529 8.9159L7.06507 6.01612L8.8722 7.5658C9.08704 7.75001 9.39832 7.78284 9.64698 7.64735L11.8366 6.4535L8.93311 9.35694Z" fill="#2B2B2B"/>
</svg>
