<svg width="62" height="62" viewBox="0 0 62 62" fill="none" xmlns="http://www.w3.org/2000/svg">
<path d="M28.5 44H32.5V55H28.5V44Z" fill="#75D0C8"/>
<path d="M38.5 40H42.5V55H38.5V40Z" fill="#75D0C8"/>
<path d="M58.5 25H20.5C19.7046 25.0009 18.9421 25.3172 18.3796 25.8796C17.8172 26.4421 17.5009 27.2046 17.5 28V59C17.5009 59.7954 17.8172 60.5579 18.3796 61.1204C18.9421 61.6828 19.7046 61.9991 20.5 62H58.5C59.2954 61.9991 60.0579 61.6828 60.6204 61.1204C61.1828 60.5579 61.4991 59.7954 61.5 59V28C61.4991 27.2046 61.1828 26.4421 60.6204 25.8796C60.0579 25.3172 59.2954 25.0009 58.5 25ZM27.5 30H36.5C36.7652 30 37.0196 30.1054 37.2071 30.2929C37.3946 30.4804 37.5 30.7348 37.5 31C37.5 31.2652 37.3946 31.5196 37.2071 31.7071C37.0196 31.8946 36.7652 32 36.5 32H27.5C27.2348 32 26.9804 31.8946 26.7929 31.7071C26.6054 31.5196 26.5 31.2652 26.5 31C26.5 30.7348 26.6054 30.4804 26.7929 30.2929C26.9804 30.1054 27.2348 30 27.5 30ZM27.5 34H33.5C33.7652 34 34.0196 34.1054 34.2071 34.2929C34.3946 34.4804 34.5 34.7348 34.5 35C34.5 35.2652 34.3946 35.5196 34.2071 35.7071C34.0196 35.8946 33.7652 36 33.5 36H27.5C27.2348 36 26.9804 35.8946 26.7929 35.7071C26.6054 35.5196 26.5 35.2652 26.5 35C26.5 34.7348 26.6054 34.4804 26.7929 34.2929C26.9804 34.1054 27.2348 34 27.5 34ZM56.5 57H23.5C23.3687 57 23.2386 56.9742 23.1173 56.924C22.9959 56.8737 22.8857 56.8 22.7928 56.7072C22.7 56.6143 22.6263 56.5041 22.5761 56.3827C22.5258 56.2614 22.5 56.1313 22.5 56V29C22.5 28.7348 22.6054 28.4804 22.7929 28.2929C22.9804 28.1054 23.2348 28 23.5 28C23.7652 28 24.0196 28.1054 24.2071 28.2929C24.3946 28.4804 24.5 28.7348 24.5 29V55H26.5V43C26.5 42.8687 26.5258 42.7386 26.5761 42.6173C26.6263 42.4959 26.7 42.3857 26.7928 42.2928C26.8857 42.2 26.9959 42.1263 27.1173 42.076C27.2386 42.0258 27.3687 42 27.5 42H33.5C33.6313 41.9999 33.7614 42.0257 33.8828 42.076C34.0041 42.1262 34.1144 42.1999 34.2073 42.2927C34.3001 42.3856 34.3738 42.4959 34.424 42.6172C34.4743 42.7386 34.5001 42.8687 34.5 43V55H36.5V39C36.4999 38.8687 36.5257 38.7386 36.576 38.6172C36.6262 38.4959 36.6999 38.3856 36.7927 38.2927C36.8856 38.1999 36.9959 38.1262 37.1172 38.076C37.2386 38.0257 37.3687 37.9999 37.5 38H43.5C43.6313 37.9999 43.7614 38.0257 43.8828 38.076C44.0041 38.1262 44.1144 38.1999 44.2073 38.2927C44.3001 38.3856 44.3738 38.4959 44.424 38.6172C44.4743 38.7386 44.5001 38.8687 44.5 39V55H46.5V36C46.4999 35.8687 46.5257 35.7386 46.576 35.6172C46.6262 35.4959 46.6999 35.3856 46.7927 35.2927C46.8856 35.1999 46.9959 35.1262 47.1172 35.076C47.2386 35.0257 47.3687 34.9999 47.5 35H53.5C53.6313 34.9999 53.7614 35.0257 53.8828 35.076C54.0041 35.1262 54.1144 35.1999 54.2073 35.2927C54.3001 35.3856 54.3738 35.4959 54.424 35.6172C54.4743 35.7386 54.5001 35.8687 54.5 36V55H56.5C56.7652 55 57.0196 55.1054 57.2071 55.2929C57.3946 55.4804 57.5 55.7348 57.5 56C57.5 56.2652 57.3946 56.5196 57.2071 56.7071C57.0196 56.8946 56.7652 57 56.5 57Z" fill="#75D0C8"/>
<path d="M48.5 37H52.5V55H48.5V37Z" fill="#75D0C8"/>
<path d="M47.207 27.293C46.739 26.8481 46.1472 26.5554 45.5096 26.4533C44.872 26.3512 44.2184 26.4444 43.6349 26.7209L42.2382 25.3241C43.2165 24.1303 43.9047 22.7259 44.2488 21.2213C44.5928 19.7167 44.5834 18.1528 44.2211 16.6525C43.8589 15.1521 43.1538 13.7562 42.1611 12.5743C41.1684 11.3924 39.9152 10.4568 38.5 9.84088V3C38.4991 2.20462 38.1828 1.44206 37.6204 0.879639C37.0579 0.317218 36.2954 0.000868196 35.5 0H3.5C2.70462 0.000868196 1.94206 0.317218 1.37964 0.879639C0.817218 1.44206 0.500868 2.20462 0.5 3V46C0.50113 47.0605 0.922921 48.0773 1.67282 48.8272C2.42272 49.5771 3.43948 49.9989 4.5 50H40.5C41.5605 49.9989 42.5773 49.5772 43.3273 48.8273C44.0772 48.0773 44.4989 47.0605 44.5 46V39C44.4991 38.2046 44.1828 37.4421 43.6204 36.8796C43.0579 36.3172 42.2954 36.0009 41.5 36H38.5V28.1591C39.3358 27.7935 40.1177 27.3154 40.8241 26.7382L42.2109 28.1249C41.9167 28.7069 41.8145 29.3671 41.9191 30.0107C42.0237 30.6543 42.3296 31.2482 42.793 31.707L45.793 34.707C46.3794 35.2874 47.1717 35.612 47.9967 35.6099C48.8217 35.6078 49.6124 35.2792 50.1958 34.6958C50.7792 34.1124 51.1078 33.3217 51.1099 32.4967C51.112 31.6717 50.7874 30.8794 50.207 30.293L47.207 27.293ZM34.5 27C33.0975 26.9996 31.72 26.6278 30.5079 25.9223C30.5263 24.8757 30.955 23.8782 31.7017 23.1446C32.4483 22.411 33.4532 21.9999 34.5 21.9999C35.5468 21.9999 36.5517 22.411 37.2983 23.1446C38.045 23.8782 38.4737 24.8757 38.4921 25.9223C37.28 26.6278 35.9025 26.9996 34.5 27ZM32 17.5C32 17.0055 32.1466 16.5222 32.4213 16.1111C32.696 15.7 33.0865 15.3795 33.5433 15.1903C34.0001 15.0011 34.5028 14.9516 34.9877 15.048C35.4727 15.1445 35.9181 15.3826 36.2678 15.7322C36.6174 16.0819 36.8555 16.5273 36.952 17.0123C37.0484 17.4972 36.9989 17.9999 36.8097 18.4567C36.6205 18.9135 36.3 19.304 35.8889 19.5787C35.4778 19.8534 34.9945 20 34.5 20C33.8371 19.9994 33.2016 19.7358 32.7329 19.2671C32.2642 18.7984 32.0006 18.1629 32 17.5ZM42.5 19C42.4995 21.0455 41.712 23.0124 40.3007 24.493C40.1005 23.7273 39.7512 23.0087 39.2727 22.3783C38.7942 21.7479 38.196 21.2181 37.5124 20.8194C38.1884 20.2102 38.6638 19.4105 38.876 18.5256C39.0882 17.6407 39.0271 16.7123 38.7009 15.8628C38.3746 15.0134 37.7985 14.2828 37.0485 13.7674C36.2985 13.2521 35.41 12.9762 34.5 12.9762C33.59 12.9762 32.7015 13.2521 31.9515 13.7674C31.2015 14.2828 30.6254 15.0134 30.2991 15.8628C29.9729 16.7123 29.9118 17.6407 30.124 18.5256C30.3362 19.4105 30.8116 20.2102 31.4876 20.8194C30.804 21.2181 30.2058 21.7479 29.7273 22.3783C29.2488 23.0087 28.8995 23.7273 28.6993 24.493C27.8014 23.5448 27.1494 22.3912 26.8003 21.1329C26.4512 19.8746 26.4156 18.5499 26.6966 17.2747C26.9776 15.9994 27.5667 14.8125 28.4124 13.8174C29.2581 12.8224 30.3346 12.0497 31.5479 11.5668C32.7612 11.0839 34.0742 10.9055 35.3724 11.0472C36.6705 11.189 37.9141 11.6465 38.9946 12.3798C40.0751 13.1131 40.9595 14.0999 41.5706 15.254C42.1817 16.408 42.5008 17.6942 42.5 19ZM42.5 39V46C42.4993 46.5302 42.2884 47.0385 41.9135 47.4135C41.5385 47.7884 41.0302 47.9993 40.5 48H7.96338C8.31571 47.3924 8.50086 46.7024 8.5 46V39C8.50027 38.7349 8.60571 38.4807 8.79319 38.2932C8.98066 38.1057 9.23487 38.0003 9.5 38H41.5C41.7652 38.0002 42.0194 38.1056 42.2069 38.2931C42.3944 38.4806 42.4998 38.7348 42.5 39ZM36.5 36H9.5C8.70462 36.0009 7.94206 36.3172 7.37964 36.8796C6.81722 37.4421 6.50087 38.2046 6.5 39V46C6.5 46.5304 6.28929 47.0391 5.91421 47.4142C5.53914 47.7893 5.03043 48 4.5 48C3.96957 48 3.46086 47.7893 3.08579 47.4142C2.71071 47.0391 2.5 46.5304 2.5 46V3C2.50026 2.73486 2.60571 2.48066 2.79319 2.29319C2.98066 2.10571 3.23486 2.00026 3.5 2H35.5C35.7652 2.00018 36.0194 2.10559 36.2069 2.29309C36.3944 2.48059 36.4998 2.73484 36.5 3V9.2016C34.8657 8.86804 33.1738 8.9494 31.579 9.43825C29.9842 9.9271 28.5374 10.8078 27.3707 12H7.5C7.23478 12 6.98043 12.1054 6.79289 12.2929C6.60536 12.4804 6.5 12.7348 6.5 13C6.5 13.2652 6.60536 13.5196 6.79289 13.7071C6.98043 13.8946 7.23478 14 7.5 14H25.8531C25.1378 15.2248 24.6937 16.5888 24.5507 18H7.5C7.23478 18 6.98043 18.1054 6.79289 18.2929C6.60536 18.4804 6.5 18.7348 6.5 19C6.5 19.2652 6.60536 19.5196 6.79289 19.7071C6.98043 19.8946 7.23478 20 7.5 20H24.5507C24.6937 21.4112 25.1378 22.7752 25.8531 24H7.5C7.23478 24 6.98043 24.1054 6.79289 24.2929C6.60536 24.4804 6.5 24.7348 6.5 25C6.5 25.2652 6.60536 25.5196 6.79289 25.7071C6.98043 25.8946 7.23478 26 7.5 26H27.3707C28.5374 27.1922 29.9842 28.0729 31.579 28.5618C33.1738 29.0506 34.8657 29.132 36.5 28.7984V36ZM48.793 33.293C48.5794 33.497 48.2954 33.6109 48 33.6109C47.7047 33.6109 47.4206 33.497 47.2071 33.293L44.2071 30.293C44.1029 30.1889 44.0203 30.0652 43.964 29.9292C43.9076 29.7931 43.8786 29.6473 43.8786 29.5C43.8786 29.3528 43.9076 29.2069 43.9639 29.0709C44.0203 28.9348 44.1029 28.8112 44.207 28.707C44.3112 28.6029 44.4348 28.5203 44.5709 28.4639C44.7069 28.4076 44.8527 28.3786 45 28.3785C45.1473 28.3785 45.2931 28.4076 45.4292 28.4639C45.5652 28.5203 45.6889 28.6029 45.793 28.707L48.793 31.707C49.0033 31.9173 49.1215 32.2026 49.1215 32.5C49.1215 32.7974 49.0033 33.0827 48.793 33.293Z" fill="#0B2577"/>
<path d="M13.5 8H25.5C25.7652 8 26.0196 7.89464 26.2071 7.70711C26.3946 7.51957 26.5 7.26522 26.5 7C26.5 6.73478 26.3946 6.48043 26.2071 6.29289C26.0196 6.10536 25.7652 6 25.5 6H13.5C13.2348 6 12.9804 6.10536 12.7929 6.29289C12.6054 6.48043 12.5 6.73478 12.5 7C12.5 7.26522 12.6054 7.51957 12.7929 7.70711C12.9804 7.89464 13.2348 8 13.5 8Z" fill="#0B2577"/>
<path d="M31.5 30H7.5C7.23478 30 6.98043 30.1054 6.79289 30.2929C6.60536 30.4804 6.5 30.7348 6.5 31C6.5 31.2652 6.60536 31.5196 6.79289 31.7071C6.98043 31.8946 7.23478 32 7.5 32H31.5C31.7652 32 32.0196 31.8946 32.2071 31.7071C32.3946 31.5196 32.5 31.2652 32.5 31C32.5 30.7348 32.3946 30.4804 32.2071 30.2929C32.0196 30.1054 31.7652 30 31.5 30Z" fill="#0B2577"/>
</svg>
