<svg width="62" height="62" viewBox="0 0 62 62" fill="none" xmlns="http://www.w3.org/2000/svg">
<path d="M37.9234 35.6865C37.8235 36.0642 37.8279 36.4619 37.936 36.8373C38.0442 37.2127 38.2521 37.5517 38.5377 37.8184C38.9607 38.138 39.414 38.4155 39.8912 38.6468V33.4966C39.3867 33.6325 38.9324 33.9117 38.5832 34.3003C38.234 34.689 38.0048 35.1704 37.9234 35.6865Z" fill="#75D0C8"/>
<path d="M41.8906 41.6455V48.3517C42.5774 48.1596 43.1951 47.7759 43.6716 47.2454C44.1481 46.7148 44.4636 46.0595 44.581 45.3562C44.9433 43.2003 43.5937 42.2665 41.8906 41.6455Z" fill="#75D0C8"/>
<path d="M40.9999 20C37.0378 19.9959 33.1562 21.1179 29.8075 23.2354L21.3505 20.0635C21.1707 19.9964 20.9754 19.9825 20.7878 20.0233C20.6003 20.0641 20.4285 20.158 20.2928 20.2937C20.1572 20.4295 20.0634 20.6014 20.0227 20.789C19.9821 20.9765 19.9962 21.1718 20.0634 21.3516L23.2352 29.8076C20.7535 33.7482 19.6522 38.4019 20.1045 43.0368C20.5569 47.6717 22.5372 52.0247 25.7339 55.411C28.9306 58.7974 33.1624 61.025 37.7636 61.7433C42.3648 62.4617 47.0742 61.6301 51.151 59.3793C55.2279 57.1285 58.4408 53.5863 60.2844 49.3099C62.128 45.0335 62.4977 40.2655 61.3352 35.756C60.1728 31.2465 57.5442 27.2514 53.863 24.3992C50.1817 21.547 45.6568 19.9994 40.9999 20ZM33.7069 38.707C33.614 38.7999 33.5038 38.8736 33.3825 38.9238C33.2612 38.9741 33.1312 39 32.9998 39C32.8685 39 32.7385 38.9741 32.6172 38.9238C32.4959 38.8736 32.3856 38.7999 32.2928 38.707L30.9999 37.4141V50C30.9999 50.2652 30.8945 50.5196 30.707 50.7071C30.5194 50.8947 30.2651 51 29.9999 51C29.7347 51 29.4803 50.8947 29.2928 50.7071C29.1052 50.5196 28.9999 50.2652 28.9999 50V37.4141L27.7069 38.7071C27.5189 38.8926 27.2652 38.9963 27.0012 38.9955C26.7371 38.9946 26.484 38.8894 26.2973 38.7026C26.1105 38.5159 26.0053 38.2628 26.0044 37.9987C26.0036 37.7346 26.1073 37.4809 26.2929 37.293L29.2916 34.2943C29.4797 34.107 29.7344 34.0018 29.9999 34.0018C30.2654 34.0018 30.5201 34.107 30.7082 34.2943L33.7069 37.293C33.7997 37.3858 33.8734 37.4961 33.9237 37.6174C33.9739 37.7387 33.9998 37.8687 33.9998 38C33.9998 38.1313 33.9739 38.2613 33.9237 38.3827C33.8734 38.504 33.7997 38.6142 33.7069 38.707ZM46.5536 45.6875C46.3644 46.8619 45.8136 47.9479 44.9779 48.7944C44.1422 49.6409 43.0633 50.2056 41.8915 50.4099V52C41.8915 52.2652 41.7861 52.5196 41.5986 52.7071C41.411 52.8947 41.1567 53 40.8915 53C40.6263 53 40.3719 52.8947 40.1844 52.7071C39.9968 52.5196 39.8915 52.2652 39.8915 52V50.4851C38.4266 50.4587 37.0054 49.9818 35.8212 49.1191C35.7113 49.0472 35.6166 48.9543 35.5426 48.8458C35.4686 48.7372 35.4167 48.6152 35.3898 48.4866C35.3356 48.2269 35.3868 47.9563 35.5321 47.7344C35.6774 47.5124 35.9049 47.3572 36.1646 47.303C36.4243 47.2488 36.6949 47.3 36.9169 47.4453C37.7755 48.094 38.8157 48.4578 39.8915 48.4856V40.8563C38.9705 40.4796 38.1009 39.9878 37.3036 39.3926C36.7277 38.9014 36.2978 38.2615 36.0605 37.5428C35.8232 36.824 35.7877 36.0539 35.9579 35.3164C36.1252 34.3394 36.5947 33.4395 37.3004 32.7434C38.0061 32.0474 38.9123 31.5902 39.8915 31.4362V30C39.8915 29.7348 39.9968 29.4804 40.1844 29.2929C40.3719 29.1054 40.6263 29 40.8915 29C41.1567 29 41.411 29.1054 41.5986 29.2929C41.7861 29.4804 41.8915 29.7348 41.8915 30V31.3589C43.064 31.4937 44.1723 31.9657 45.0819 32.7178C45.2763 32.8971 45.3918 33.1461 45.403 33.4103C45.4142 33.6745 45.3203 33.9325 45.1418 34.1276C44.9634 34.3228 44.7148 34.4393 44.4506 34.4516C44.1864 34.4639 43.9281 34.3711 43.7323 34.1934C43.1964 33.7735 42.5632 33.4956 41.8914 33.3853V39.5111C42.2663 39.655 42.6623 39.8024 43.1034 39.958C44.2834 40.3201 45.2882 41.1051 45.9249 42.1625C46.5617 43.2199 46.7855 44.4752 46.5536 45.6875ZM55.7069 38.707C55.614 38.7999 55.5038 38.8736 55.3825 38.9238C55.2612 38.9741 55.1312 39 54.9998 39C54.8685 39 54.7385 38.9741 54.6172 38.9238C54.4959 38.8736 54.3856 38.7999 54.2928 38.707L52.9999 37.4141V50C52.9999 50.2652 52.8945 50.5196 52.707 50.7071C52.5194 50.8947 52.2651 51 51.9999 51C51.7347 51 51.4803 50.8947 51.2928 50.7071C51.1052 50.5196 50.9999 50.2652 50.9999 50V37.4141L49.7069 38.7071C49.5189 38.8926 49.2652 38.9963 49.0012 38.9955C48.7371 38.9946 48.484 38.8894 48.2973 38.7026C48.1105 38.5159 48.0053 38.2628 48.0044 37.9987C48.0036 37.7346 48.1073 37.4809 48.2929 37.293L51.2916 34.2943C51.4797 34.107 51.7344 34.0018 51.9999 34.0018C52.2654 34.0018 52.5201 34.107 52.7082 34.2943L55.7069 37.293C55.7997 37.3858 55.8734 37.4961 55.9237 37.6174C55.9739 37.7387 55.9998 37.8687 55.9998 38C55.9998 38.1313 55.9739 38.2613 55.9237 38.3827C55.8734 38.504 55.7997 38.6142 55.7069 38.707Z" fill="#75D0C8"/>
<path d="M49 28H47V3C46.9991 2.20462 46.6828 1.44206 46.1204 0.879639C45.5579 0.317218 44.7954 0.000868196 44 0H6C5.20462 0.000868196 4.44206 0.317218 3.87964 0.879639C3.31722 1.44206 3.00087 2.20462 3 3V28H1C0.868657 27.9999 0.738587 28.0257 0.617228 28.076C0.495869 28.1262 0.3856 28.1999 0.292726 28.2927C0.199853 28.3856 0.126196 28.4959 0.0759681 28.6172C0.0257399 28.7386 -7.47669e-05 28.8687 1.6265e-07 29V32C0.000868358 32.7954 0.317218 33.5579 0.879639 34.1204C1.44206 34.6828 2.20462 34.9991 3 35H47C47.7954 34.9991 48.5579 34.6828 49.1204 34.1204C49.6828 33.5579 49.9991 32.7954 50 32V29C50.0001 28.8687 49.9743 28.7386 49.924 28.6172C49.8738 28.4959 49.8001 28.3856 49.7073 28.2927C49.6144 28.1999 49.5041 28.1262 49.3828 28.076C49.2614 28.0257 49.1313 27.9999 49 28ZM5 3C5.00018 2.73484 5.10559 2.48059 5.29309 2.29309C5.48059 2.10559 5.73484 2.00018 6 2H44C44.2652 2.00018 44.5194 2.10559 44.7069 2.29309C44.8944 2.48059 44.9998 2.73484 45 3V28H30V23C29.9983 21.4092 29.3656 19.8841 28.2407 18.7593C27.1159 17.6344 25.5908 17.0017 24 17H23.8893C24.8852 16.0279 25.5688 14.7811 25.8528 13.4186C26.1367 12.0562 26.0081 10.64 25.4833 9.35104C24.9585 8.06206 24.0615 6.95876 22.9066 6.18206C21.7518 5.40536 20.3917 4.99051 19 4.99051C17.6083 4.99051 16.2482 5.40536 15.0934 6.18206C13.9385 6.95876 13.0415 8.06206 12.5167 9.35104C11.9919 10.64 11.8633 12.0562 12.1472 13.4186C12.4312 14.7811 13.1148 16.0279 14.1107 17H14C12.4092 17.0017 10.8841 17.6344 9.75928 18.7593C8.63444 19.8841 8.00174 21.4092 8 23V28H5V3ZM23.9188 11.1971C24.1321 12.4897 23.8285 13.8143 23.0737 14.8851C22.3188 15.9558 21.1732 16.6867 19.8841 16.9202C18.595 17.1536 17.2658 16.8708 16.1834 16.1328C15.101 15.3948 14.3522 14.2608 14.0986 12.9755C17.4418 12.8698 20.7509 12.2705 23.9188 11.1971ZM14.1074 10.9753C14.3093 10.0018 14.7975 9.11078 15.5093 8.41667C16.2212 7.72257 17.1243 7.25705 18.1026 7.07986C19.081 6.90267 20.0899 7.0219 21 7.42225C21.9101 7.82261 22.6798 8.4858 23.2103 9.32672C20.272 10.3149 17.2056 10.8703 14.1074 10.9753ZM24 19C25.0605 19.0011 26.0773 19.4228 26.8273 20.1727C27.5772 20.9227 27.9989 21.9395 28 23V28H10V23C10.0011 21.9395 10.4228 20.9227 11.1727 20.1727C11.9227 19.4228 12.9395 19.0011 14 19H24ZM48 32C47.9998 32.2652 47.8944 32.5194 47.7069 32.7069C47.5194 32.8944 47.2652 32.9998 47 33H3C2.73484 32.9998 2.48059 32.8944 2.29309 32.7069C2.10559 32.5194 2.00018 32.2652 2 32V30H48V32Z" fill="#000080"/>
<path d="M34 22H41C41.2652 22 41.5196 21.8946 41.7071 21.7071C41.8946 21.5196 42 21.2652 42 21C42 20.7348 41.8946 20.4804 41.7071 20.2929C41.5196 20.1054 41.2652 20 41 20H34C33.7348 20 33.4804 20.1054 33.2929 20.2929C33.1054 20.4804 33 20.7348 33 21C33 21.2652 33.1054 21.5196 33.2929 21.7071C33.4804 21.8946 33.7348 22 34 22Z" fill="#000080"/>
<path d="M34 16H41C41.2652 16 41.5196 15.8946 41.7071 15.7071C41.8946 15.5196 42 15.2652 42 15C42 14.7348 41.8946 14.4804 41.7071 14.2929C41.5196 14.1054 41.2652 14 41 14H34C33.7348 14 33.4804 14.1054 33.2929 14.2929C33.1054 14.4804 33 14.7348 33 15C33 15.2652 33.1054 15.5196 33.2929 15.7071C33.4804 15.8946 33.7348 16 34 16Z" fill="#000080"/>
<path d="M34 10H41C41.2652 10 41.5196 9.89464 41.7071 9.70711C41.8946 9.51957 42 9.26522 42 9C42 8.73478 41.8946 8.48043 41.7071 8.29289C41.5196 8.10536 41.2652 8 41 8H34C33.7348 8 33.4804 8.10536 33.2929 8.29289C33.1054 8.48043 33 8.73478 33 9C33 9.26522 33.1054 9.51957 33.2929 9.70711C33.4804 9.89464 33.7348 10 34 10Z" fill="#000080"/>
</svg>
