<svg width="62" height="60" viewBox="0 0 62 60" fill="none" xmlns="http://www.w3.org/2000/svg">
<path d="M44 34C45.1046 34 46 33.1046 46 32C46 30.8954 45.1046 30 44 30C42.8954 30 42 30.8954 42 32C42 33.1046 42.8954 34 44 34Z" fill="#75D0C8"/>
<path d="M34 34C35.1046 34 36 33.1046 36 32C36 30.8954 35.1046 30 34 30C32.8954 30 32 30.8954 32 32C32 33.1046 32.8954 34 34 34Z" fill="#75D0C8"/>
<path d="M44 14C40.4399 14 36.9598 15.0557 33.9997 17.0335C31.0397 19.0114 28.7326 21.8226 27.3702 25.1117C26.0078 28.4008 25.6513 32.02 26.3459 35.5116C27.0404 39.0033 28.7547 42.2106 31.2721 44.7279C33.7894 47.2453 36.9967 48.9596 40.4884 49.6541C43.98 50.3487 47.5992 49.9922 50.8883 48.6298C54.1774 47.2675 56.9886 44.9603 58.9665 42.0003C60.9443 39.0402 62 35.5601 62 32C61.9946 27.2278 60.0965 22.6525 56.722 19.278C53.3475 15.9035 48.7723 14.0054 44 14ZM34 36C33.2089 36 32.4355 35.7654 31.7777 35.3259C31.1199 34.8864 30.6072 34.2616 30.3045 33.5307C30.0017 32.7998 29.9225 31.9956 30.0769 31.2196C30.2312 30.4437 30.6122 29.731 31.1716 29.1716C31.731 28.6122 32.4437 28.2312 33.2196 28.0769C33.9956 27.9225 34.7998 28.0017 35.5307 28.3045C36.2616 28.6072 36.8864 29.1199 37.3259 29.7777C37.7654 30.4355 38 31.2089 38 32C37.9989 33.0605 37.5771 34.0773 36.8272 34.8272C36.0773 35.5771 35.0605 35.9989 34 36ZM44 36C43.2089 36 42.4355 35.7654 41.7777 35.3259C41.1199 34.8864 40.6072 34.2616 40.3045 33.5307C40.0017 32.7998 39.9225 31.9956 40.0769 31.2196C40.2312 30.4437 40.6122 29.731 41.1716 29.1716C41.731 28.6122 42.4437 28.2312 43.2196 28.0769C43.9956 27.9225 44.7998 28.0017 45.5307 28.3045C46.2616 28.6072 46.8864 29.1199 47.3259 29.7777C47.7654 30.4355 48 31.2089 48 32C47.9989 33.0605 47.5771 34.0773 46.8272 34.8272C46.0773 35.5771 45.0605 35.9989 44 36ZM54 36C53.2089 36 52.4355 35.7654 51.7777 35.3259C51.1199 34.8864 50.6072 34.2616 50.3045 33.5307C50.0017 32.7998 49.9225 31.9956 50.0769 31.2196C50.2312 30.4437 50.6122 29.731 51.1716 29.1716C51.731 28.6122 52.4437 28.2312 53.2196 28.0769C53.9956 27.9225 54.7998 28.0017 55.5307 28.3045C56.2616 28.6072 56.8864 29.1199 57.3259 29.7777C57.7654 30.4355 58 31.2089 58 32C57.9989 33.0605 57.5771 34.0773 56.8272 34.8272C56.0773 35.5771 55.0605 35.9989 54 36Z" fill="#75D0C8"/>
<path d="M54 34C55.1046 34 56 33.1046 56 32C56 30.8954 55.1046 30 54 30C52.8954 30 52 30.8954 52 32C52 33.1046 52.8954 34 54 34Z" fill="#75D0C8"/>
<path d="M26.6606 41.9253L17.5356 51.0507C16.8024 51.7839 16.3031 52.718 16.1008 53.7349C15.8984 54.7519 16.0023 55.806 16.3991 56.7639C16.7959 57.7219 17.4679 58.5406 18.33 59.1166C19.1922 59.6926 20.2058 60 21.2427 59.9999C22.6322 59.9959 23.9641 59.4443 24.9497 58.4648L34.0747 49.3393C30.9917 47.5665 28.4335 45.0083 26.6606 41.9253Z" fill="#75D0C8"/>
<path d="M47 0H11C10.7372 0.00848153 10.4865 0.112215 10.2945 0.29187C9.57957 1.00524 0.19124 10.3956 0.29181 10.2946C0.113481 10.4874 0.00997863 10.7376 0 11V29C0.000868196 29.7954 0.317218 30.5579 0.879639 31.1204C1.44206 31.6828 2.20462 31.9991 3 32H47C47.7954 31.9991 48.5579 31.6828 49.1204 31.1204C49.6828 30.5579 49.9991 29.7954 50 29V3C49.9991 2.20462 49.6828 1.44206 49.1204 0.879639C48.5579 0.317218 47.7954 0.000868196 47 0ZM10 3.41406V10H3.41406L10 3.41406ZM48 29C47.9997 29.2651 47.8942 29.5193 47.7067 29.7067C47.5193 29.8942 47.2651 29.9997 47 30H3C2.73489 29.9997 2.48074 29.8942 2.29327 29.7067C2.10581 29.5193 2.00034 29.2651 2 29V12H11C11.2652 12 11.5196 11.8946 11.7071 11.7071C11.8946 11.5196 12 11.2652 12 11V2H47C47.2651 2.00034 47.5193 2.10581 47.7067 2.29327C47.8942 2.48073 47.9997 2.73489 48 3V29Z" fill="#0B2577"/>
<path d="M16 7H31C31.2652 7 31.5196 6.89464 31.7071 6.70711C31.8946 6.51957 32 6.26522 32 6C32 5.73478 31.8946 5.48043 31.7071 5.29289C31.5196 5.10536 31.2652 5 31 5H16C15.7348 5 15.4804 5.10536 15.2929 5.29289C15.1054 5.48043 15 5.73478 15 6C15 6.26522 15.1054 6.51957 15.2929 6.70711C15.4804 6.89464 15.7348 7 16 7Z" fill="#0B2577"/>
<path d="M6 17H31C31.2652 17 31.5196 16.8946 31.7071 16.7071C31.8946 16.5196 32 16.2652 32 16C32 15.7348 31.8946 15.4804 31.7071 15.2929C31.5196 15.1054 31.2652 15 31 15H6C5.73478 15 5.48043 15.1054 5.29289 15.2929C5.10536 15.4804 5 15.7348 5 16C5 16.2652 5.10536 16.5196 5.29289 16.7071C5.48043 16.8946 5.73478 17 6 17Z" fill="#0B2577"/>
<path d="M16 12H33C33.2652 12 33.5196 11.8946 33.7071 11.7071C33.8946 11.5196 34 11.2652 34 11C34 10.7348 33.8946 10.4804 33.7071 10.2929C33.5196 10.1054 33.2652 10 33 10H16C15.7348 10 15.4804 10.1054 15.2929 10.2929C15.1054 10.4804 15 10.7348 15 11C15 11.2652 15.1054 11.5196 15.2929 11.7071C15.4804 11.8946 15.7348 12 16 12Z" fill="#0B2577"/>
<path d="M44 25H6C5.73478 25 5.48043 25.1054 5.29289 25.2929C5.10536 25.4804 5 25.7348 5 26C5 26.2652 5.10536 26.5196 5.29289 26.7071C5.48043 26.8946 5.73478 27 6 27H44C44.2652 27 44.5196 26.8946 44.7071 26.7071C44.8946 26.5196 45 26.2652 45 26C45 25.7348 44.8946 25.4804 44.7071 25.2929C44.5196 25.1054 44.2652 25 44 25Z" fill="#0B2577"/>
<path d="M6 22H33C33.2652 22 33.5196 21.8946 33.7071 21.7071C33.8946 21.5196 34 21.2652 34 21C34 20.7348 33.8946 20.4804 33.7071 20.2929C33.5196 20.1054 33.2652 20 33 20H6C5.73478 20 5.48043 20.1054 5.29289 20.2929C5.10536 20.4804 5 20.7348 5 21C5 21.2652 5.10536 21.5196 5.29289 21.7071C5.48043 21.8946 5.73478 22 6 22Z" fill="#0B2577"/>
<path d="M42.2505 12.9853C42.0208 12.9042 41.7855 12.8168 41.5513 12.729V8.80731C41.8717 8.89836 42.1718 9.04959 42.4356 9.25293C42.6316 9.43031 42.8899 9.52283 43.154 9.51025C43.4181 9.49767 43.6664 9.38102 43.8447 9.18581C44.023 8.99061 44.1167 8.73273 44.1054 8.4686C44.094 8.20447 43.9786 7.95558 43.7842 7.77637C43.1401 7.2516 42.3706 6.90321 41.5513 6.76537V6C41.5513 5.73478 41.4459 5.48043 41.2584 5.29289C41.0709 5.10536 40.8165 5 40.5513 5C40.2861 5 40.0317 5.10536 39.8442 5.29289C39.6566 5.48043 39.5513 5.73478 39.5513 6V6.84338C39.4444 6.86871 39.3458 6.87506 39.2359 6.9082C38.5862 7.11272 38.0055 7.49221 37.5573 8.00505C37.1092 8.51789 36.8109 9.14425 36.6953 9.81543C36.562 10.4009 36.592 11.0117 36.782 11.5813C36.972 12.1509 37.3148 12.6573 37.773 13.0454C38.3223 13.4576 38.9194 13.802 39.5513 14.071V19.1522C38.9187 19.0827 38.3167 18.8433 37.8091 18.4594C37.6992 18.3875 37.5762 18.338 37.4472 18.3137C37.3181 18.2893 37.1855 18.2906 37.057 18.3175C36.9285 18.3444 36.8065 18.3963 36.698 18.4704C36.5895 18.5444 36.4967 18.6391 36.4248 18.749C36.3529 18.8589 36.3034 18.9819 36.2791 19.1109C36.2547 19.24 36.256 19.3725 36.2829 19.5011C36.3098 19.6296 36.3617 19.7516 36.4358 19.8601C36.5098 19.9686 36.6045 20.0614 36.7144 20.1333C37.5438 20.7365 38.5278 21.0911 39.5513 21.1556V22C39.5513 22.2652 39.6566 22.5196 39.8442 22.7071C40.0317 22.8946 40.2861 23 40.5513 23C40.8165 23 41.0709 22.8946 41.2584 22.7071C41.4459 22.5196 41.5513 22.2652 41.5513 22V21.0591C42.4064 20.8553 43.1831 20.4052 43.785 19.7646C44.387 19.1239 44.7879 18.3208 44.938 17.4546C45.1196 16.5094 44.9458 15.5304 44.4497 14.7055C43.9537 13.8807 43.1705 13.2681 42.2505 12.9853ZM39.5513 11.8244C39.3624 11.719 39.1807 11.6011 39.0073 11.4717C38.8412 11.3071 38.7216 11.1014 38.6607 10.8756C38.5998 10.6497 38.5998 10.4118 38.6607 10.186C38.709 9.92749 38.8139 9.68287 38.9679 9.46968C39.1218 9.25648 39.3211 9.07999 39.5513 8.95284V11.8244ZM42.9658 17.1231C42.8983 17.5226 42.7342 17.8996 42.4876 18.2213C42.2411 18.5429 41.9196 18.7993 41.5513 18.9683V14.8592L41.584 14.8711C42.0558 15.0032 42.4602 15.3086 42.7164 15.7262C42.9727 16.1437 43.0617 16.6426 42.9658 17.1231V17.1231Z" fill="#0B2577"/>
</svg>
