<svg width="53" height="53" viewBox="0 0 53 53" fill="none" xmlns="http://www.w3.org/2000/svg">
<path d="M7.76664 0.753906C3.8977 0.753906 0.753906 3.85661 0.753906 7.76664V46.3238C0.753906 50.2297 3.8977 53.3366 7.76664 53.3366H23.538C27.407 53.3366 30.5525 50.2136 30.5525 46.3238V36.391C30.9512 36.5814 31.3927 36.6837 31.8653 36.6837C33.5661 36.6837 34.9309 35.3 34.9309 33.6164C34.9309 31.9327 33.5695 30.5508 31.8653 30.5508C30.9053 30.5508 30.0603 30.9918 29.5032 31.677L24.0532 28.9503C23.8351 29.506 23.5174 30.0068 23.1358 30.4515C25.0244 31.3987 26.9119 32.3387 28.7997 33.2826V33.6164V46.3238C28.7997 49.2208 26.4662 51.5838 23.538 51.5838H7.76664C4.83842 51.5838 2.50666 49.2299 2.50666 46.3238V7.76664C2.50666 4.83839 4.85896 2.50837 7.76664 2.50837H23.538C26.4441 2.50837 28.7997 4.83839 28.7997 7.76664V20.4724V20.8079C26.9114 21.7499 25.022 22.6929 23.1341 23.6356C23.5163 24.0805 23.8348 24.5825 24.0532 25.1384L29.4964 22.422C30.0576 23.1034 30.9095 23.5397 31.8653 23.5397C33.5661 23.5397 34.9309 22.1561 34.9309 20.4724C34.9309 18.7888 33.5695 17.4068 31.8653 17.4068C31.3926 17.4068 30.9508 17.5098 30.5525 17.6995V7.76664C30.5525 3.89768 27.4438 0.753906 23.538 0.753906H7.76664ZM44.5711 0.753906C39.7411 0.753906 35.8125 4.67064 35.8125 9.52111C35.8125 14.3716 39.7617 18.2798 44.5711 18.2798C49.3805 18.2798 53.3366 14.3716 53.3366 9.52111C53.3366 4.67064 49.401 0.753906 44.5711 0.753906ZM7.76664 4.25942C5.81024 4.25942 4.26113 5.83975 4.26113 7.76664V46.3238C4.26113 48.2507 5.79866 49.8311 7.76664 49.8311H23.538C25.4649 49.8311 27.0452 48.2798 27.0452 46.3238V34.3644L21.6398 31.6616C20.896 32.0655 20.054 32.3035 19.1596 32.3035C16.2991 32.3035 13.8996 29.966 13.8996 27.0435C13.8996 24.121 16.3002 21.7853 19.1596 21.7853C20.0534 21.7853 20.896 22.0232 21.6398 22.4271L27.0452 19.7244V7.76664C27.0452 5.83975 25.4871 4.25942 23.538 4.25942H7.76664ZM42.8183 4.26113C43.0237 4.25984 43.223 4.33073 43.3815 4.46139L48.6397 8.84671C49.0606 9.19712 49.0606 9.84338 48.6397 10.1938L43.3815 14.5723C42.8109 15.0456 41.947 14.6409 41.9454 13.8996V5.13408C41.9473 4.65277 42.337 4.26305 42.8183 4.26113V4.26113ZM43.6981 7.00323V12.0304L46.7056 9.5211L43.6981 7.00323ZM19.1578 23.5397C17.2218 23.5397 15.6523 25.1092 15.6523 27.0452C15.6523 28.9813 17.2218 30.5508 19.1578 30.5508C21.0939 30.5508 22.6634 28.9813 22.6634 27.0452C22.6634 25.1092 21.0939 23.5397 19.1578 23.5397ZM44.5711 35.809C39.7411 35.809 35.8125 39.724 35.8125 44.5745C35.8125 49.425 39.7617 53.3349 44.5711 53.3349C49.3805 53.3349 53.3366 49.425 53.3366 44.5745C53.3366 39.724 49.401 35.809 44.5711 35.809ZM40.1909 40.1909H48.9581C49.4394 40.1928 49.8291 40.5825 49.8311 41.0639V48.0766C49.8339 48.5613 49.4428 48.9562 48.9581 48.9581H40.1909C39.7036 48.96 39.3083 48.5639 39.3111 48.0766V41.0639C39.313 40.5799 39.7069 40.1891 40.1909 40.1909ZM41.8975 41.9454L44.5711 43.5492L47.2499 41.9454H41.8975ZM8.64131 42.82H10.3941C11.5629 42.82 11.5629 44.5728 10.3941 44.5728H8.64131C7.47252 44.5728 7.47252 42.82 8.64131 42.82ZM13.8996 42.82H17.4051C18.5739 42.82 18.5739 44.5728 17.4051 44.5728H13.8996C12.7308 44.5728 12.7308 42.82 13.8996 42.82ZM20.9106 42.82H22.6634C23.8321 42.82 23.8321 44.5728 22.6634 44.5728H20.9106C19.7418 44.5728 19.7418 42.82 20.9106 42.82ZM41.0639 43.4876V47.2036H48.0766V43.491L45.0247 45.3208C44.7475 45.4867 44.4015 45.4867 44.1243 45.3208L41.0639 43.4876Z" fill="#2F6CE9"/>
</svg>
