<svg width="43" height="52" viewBox="0 0 43 52" fill="none" xmlns="http://www.w3.org/2000/svg">
<path d="M42.75 12.6242C42.75 10.4023 41.4405 8.38744 39.4099 7.48406C35.2283 5.62669 27.2475 2.07956 23.6599 0.484313C22.2053 -0.161437 20.5447 -0.161437 19.0901 0.484313C15.5025 2.07956 7.52174 5.62669 3.34012 7.48406C1.30949 8.38744 0 10.4023 0 12.6242V29.9503C0 36.8961 3.84301 41.8371 8.30251 45.2019C12.6371 48.4712 17.5376 50.2318 19.8067 50.9271C19.8124 50.9293 19.8191 50.9304 19.8248 50.9327C20.8373 51.2241 21.9116 51.2241 22.9241 50.9338C22.9309 50.9316 22.9376 50.9304 22.9444 50.9282C25.2135 50.2318 30.1129 48.4723 34.4475 45.2019C38.907 41.8371 42.75 36.8961 42.75 29.9503V12.6242ZM40.5 12.6242V29.9503C40.5 36.0939 37.0373 40.4286 33.0919 43.4053C29.0284 46.4721 24.4316 48.1179 22.2952 48.7738C21.6956 48.9437 21.06 48.9437 20.4604 48.7738C18.3195 48.1168 13.7227 46.4721 9.65812 43.4053C5.71274 40.4286 2.25 36.0939 2.25 29.9503V12.6242C2.25 11.2911 3.03526 10.0828 4.25476 9.54057C8.43526 7.68207 16.416 4.13494 20.0048 2.54082C20.8766 2.15269 21.8734 2.15269 22.7452 2.54082C26.334 4.13494 34.3147 7.68207 38.4952 9.54057C39.7147 10.0828 40.5 11.2911 40.5 12.6242Z" fill="#636360"/>
<path d="M21.3751 13.3262C14.6139 13.3262 9.125 18.815 9.125 25.5752C9.125 32.3364 14.6139 37.8253 21.3751 37.8253C28.1364 37.8253 33.6253 32.3364 33.6253 25.5752C33.6253 18.815 28.1364 13.3262 21.3751 13.3262ZM21.3751 15.5762C26.8944 15.5762 31.3753 20.0559 31.3753 25.5752C31.3753 31.0944 26.8944 35.5753 21.3751 35.5753C15.8559 35.5753 11.375 31.0944 11.375 25.5752C11.375 20.0559 15.8559 15.5762 21.3751 15.5762Z" fill="#636360"/>
<path d="M15.7524 26.4057L18.9339 29.5872C19.373 30.0263 20.0856 30.0263 20.5247 29.5872L26.8877 23.2242C27.3267 22.7852 27.3267 22.0725 26.8877 21.6335C26.4486 21.1944 25.736 21.1944 25.2969 21.6335L19.7293 27.2011L17.3432 24.815C16.9041 24.3759 16.1915 24.3759 15.7524 24.815C15.3134 25.254 15.3134 25.9667 15.7524 26.4057Z" fill="#636360"/>
</svg>
