<svg width="60" height="60" viewBox="0 0 60 60" fill="none" xmlns="http://www.w3.org/2000/svg">
<path fill-rule="evenodd" clip-rule="evenodd" d="M27.969 12.324L35.1243 2.52914L42.2796 12.324H38.5601C38.437 12.324 38.3151 12.3482 38.2013 12.3953C38.0876 12.4424 37.9843 12.5115 37.8973 12.5986C37.8103 12.6856 37.7413 12.789 37.6943 12.9028C37.6472 13.0165 37.6231 13.1384 37.6233 13.2615V24.9232H32.6245V13.2618C32.6246 13.1387 32.6005 13.0168 32.5535 12.903C32.5065 12.7892 32.4375 12.6859 32.3505 12.5988C32.2635 12.5117 32.1601 12.4426 32.0464 12.3955C31.9327 12.3484 31.8108 12.3242 31.6877 12.3243L27.969 12.324ZM31.6879 26.7987H38.5603C38.6834 26.7988 38.8054 26.7746 38.9192 26.7276C39.033 26.6805 39.1364 26.6114 39.2235 26.5244C39.3106 26.4373 39.3796 26.3339 39.4267 26.2201C39.4737 26.1063 39.4979 25.9843 39.4978 25.8612V14.1994H44.1248C44.2981 14.1998 44.4681 14.1522 44.6158 14.0618C44.7636 13.9714 44.8834 13.8417 44.9619 13.6872C45.0403 13.5328 45.0743 13.3595 45.0602 13.1869C45.046 13.0142 44.9842 12.8488 44.8816 12.7092L35.8811 0.386135C35.7943 0.266825 35.6805 0.169741 35.5489 0.102805C35.4174 0.0358683 35.2719 0.000976562 35.1243 0.000976562C34.9768 0.000976562 34.8313 0.0358683 34.6998 0.102805C34.5682 0.169741 34.4544 0.266825 34.3675 0.386135L25.3663 12.7092C25.2638 12.8492 25.2022 13.0149 25.1883 13.1878C25.1745 13.3607 25.2088 13.5341 25.2876 13.6887C25.3654 13.8432 25.4849 13.9729 25.6325 14.0631C25.7801 14.1534 25.95 14.2006 26.1231 14.1994H30.7504V25.8611C30.7503 25.9842 30.7745 26.1062 30.8216 26.22C30.8686 26.3338 30.9377 26.4372 31.0248 26.5242C31.1118 26.6113 31.2152 26.6804 31.329 26.7274C31.4428 26.7745 31.5648 26.7987 31.6879 26.7986V26.7987ZM45.7306 17.6815L49.5607 12.4324L53.3915 17.6815H51.7286C51.6055 17.6814 51.4835 17.7055 51.3697 17.7526C51.2559 17.7997 51.1525 17.8687 51.0655 17.9558C50.9784 18.0429 50.9093 18.1463 50.8623 18.2601C50.8152 18.3739 50.791 18.4958 50.7911 18.619V24.9229H48.3315V18.6196C48.3316 18.4964 48.3075 18.3745 48.2604 18.2607C48.2133 18.1469 48.1443 18.0435 48.0572 17.9564C47.9701 17.8693 47.8667 17.8003 47.7529 17.7532C47.6391 17.7061 47.5171 17.6819 47.394 17.6821L45.7306 17.6815ZM47.3941 26.7987C47.1455 26.7987 46.907 26.6999 46.7312 26.5241C46.5554 26.3483 46.4566 26.1098 46.4566 25.8612V19.5572H43.8853C43.712 19.5577 43.5421 19.51 43.3943 19.4196C43.2465 19.3292 43.1267 19.1995 43.0482 19.045C42.9698 18.8906 42.9358 18.7174 42.9499 18.5447C42.9641 18.372 43.0259 18.2067 43.1285 18.067L48.8036 10.2894C48.8907 10.1702 49.0046 10.0732 49.1362 10.0064C49.2678 9.93952 49.4133 9.90468 49.5609 9.90468C49.7084 9.90468 49.8539 9.93952 49.9855 10.0064C50.1171 10.0732 50.231 10.1702 50.3181 10.2894L55.994 18.0667C56.0964 18.2064 56.158 18.3717 56.1721 18.5443C56.1861 18.7169 56.1521 18.89 56.0736 19.0444C55.9952 19.1988 55.8756 19.3284 55.7279 19.4189C55.5802 19.5093 55.4104 19.5571 55.2372 19.5568H52.6664V25.8607C52.6664 26.1093 52.5676 26.3478 52.3918 26.5236C52.216 26.6994 51.9775 26.7982 51.7289 26.7982L47.3941 26.7987ZM16.8567 17.6815L20.6867 12.4324L24.5188 17.6815H22.8547C22.6061 17.6815 22.3676 17.7803 22.1918 17.9561C22.016 18.1319 21.9172 18.3703 21.9172 18.619V24.9229H19.4576V18.6196C19.4577 18.4964 19.4335 18.3745 19.3864 18.2607C19.3394 18.1469 19.2703 18.0435 19.1832 17.9564C19.0962 17.8693 18.9928 17.8003 18.879 17.7532C18.7652 17.7061 18.6432 17.6819 18.5201 17.6821L16.8567 17.6815ZM18.5202 26.7987C18.3971 26.7988 18.2751 26.7746 18.1614 26.7275C18.0476 26.6804 17.9443 26.6114 17.8573 26.5243C17.7702 26.4372 17.7013 26.3338 17.6543 26.22C17.6073 26.1062 17.5832 25.9843 17.5834 25.8612V19.5572H15.0113C14.8381 19.5576 14.6682 19.5099 14.5204 19.4195C14.3726 19.3291 14.2528 19.1995 14.1743 19.0451C14.0958 18.8907 14.0616 18.7175 14.0757 18.5448C14.0897 18.3722 14.1513 18.2068 14.2537 18.067L19.9297 10.2894C20.0167 10.1702 20.1307 10.0732 20.2622 10.0064C20.3938 9.93952 20.5393 9.90468 20.6869 9.90468C20.8345 9.90468 20.98 9.93952 21.1116 10.0064C21.2432 10.0732 21.3571 10.1702 21.4441 10.2894L27.121 18.0667C27.2231 18.2065 27.2844 18.3719 27.2982 18.5444C27.3121 18.717 27.2779 18.89 27.1994 19.0443C27.121 19.1986 27.0013 19.3281 26.8537 19.4186C26.7061 19.5091 26.5364 19.5569 26.3633 19.5568H23.7916V25.8607C23.7916 26.1093 23.6928 26.3478 23.517 26.5236C23.3412 26.6994 23.1028 26.7982 22.8541 26.7982L18.5202 26.7987ZM57.5874 32.7259L41.3793 48.833C41.0306 49.1926 40.6005 49.4633 40.1254 49.6221C39.6502 49.7809 39.1438 49.8232 38.6489 49.7455L22.2095 47.4604C22.0869 47.4418 21.9619 47.4485 21.8421 47.4802C21.7223 47.5119 21.6102 47.5678 21.5129 47.6446L17.4426 50.7421L11.3793 41.6166L19.1408 36.175C20.9281 34.9193 22.9131 34.5343 25.0411 35.0197L40.9792 38.6446C41.1959 38.6909 41.401 38.7809 41.5819 38.909C41.7627 39.0371 41.9157 39.2007 42.0314 39.3898C42.1503 39.5768 42.2309 39.7856 42.2685 40.004C42.3062 40.2224 42.3002 40.4461 42.2508 40.6622L42.2315 40.746C42.1305 41.1764 41.8652 41.5504 41.4924 41.7881C41.1196 42.0258 40.6686 42.1084 40.2357 42.0184L28.8829 39.6161C28.7626 39.5896 28.6383 39.5874 28.5171 39.6093C28.3959 39.6313 28.2802 39.6771 28.1768 39.7441C28.0734 39.811 27.9843 39.8978 27.9147 39.9994C27.8451 40.1011 27.7963 40.2155 27.7712 40.3361C27.7205 40.5794 27.768 40.8329 27.9033 41.0414C28.0386 41.2498 28.2508 41.3965 28.4936 41.4493L39.8472 43.8517C40.7624 44.0426 41.716 43.8674 42.5035 43.3635C43.291 42.8597 43.8497 42.0673 44.0599 41.1564L44.0783 41.081C44.2836 40.1866 44.1345 39.2475 43.6623 38.4607L55.1021 29.8709C55.4588 29.5997 55.904 29.4717 56.3503 29.512C56.7965 29.5523 57.2116 29.758 57.514 30.0886L57.6396 30.2224C57.9588 30.5642 58.1319 31.0172 58.1221 31.4848C58.1122 31.9523 57.9202 32.3976 57.5868 32.7257L57.5874 32.7259ZM10.5183 57.7656L16.9979 53.4625L8.71169 40.9808L2.23204 45.2834L10.5183 57.7656ZM58.8899 28.8079C58.2712 28.1382 57.4255 27.7227 56.5174 27.6423C55.6093 27.5618 54.7037 27.8222 53.977 28.3726L42.291 37.1461C42.0086 36.9957 41.7077 36.8831 41.396 36.8113L25.4585 33.1863C24.1939 32.8854 22.8794 32.8597 21.604 33.1111C20.3287 33.3624 19.1222 33.8848 18.0663 34.643L10.3433 40.0511L9.75478 39.1637C9.61598 38.9581 9.40172 38.8156 9.15848 38.767C8.91524 38.7184 8.66265 38.7677 8.45552 38.9041L0.413646 44.2453C0.311309 44.3134 0.223383 44.4009 0.154889 44.503C0.0863945 44.605 0.038673 44.7196 0.0144496 44.8401C-0.0097738 44.9606 -0.0100247 45.0847 0.0137112 45.2053C0.0374471 45.3259 0.0847049 45.4406 0.152786 45.5429L9.47622 59.582C9.56227 59.7103 9.67846 59.8155 9.81461 59.8884C9.95075 59.9613 10.1027 59.9998 10.2572 60.0004C10.442 60.001 10.6227 59.9455 10.7754 59.8412L18.8155 54.5002C18.918 54.4324 19.0062 54.3451 19.075 54.2432C19.1437 54.1413 19.1917 54.0269 19.2161 53.9064C19.2406 53.786 19.241 53.6619 19.2174 53.5412C19.1938 53.4206 19.1466 53.3058 19.0786 53.2035L18.4834 52.3077L22.3388 49.3692L38.3915 51.6045C39.1726 51.7217 39.9703 51.6524 40.7193 51.4021C41.4684 51.1518 42.1476 50.7277 42.7012 50.1645L58.9091 34.0569C59.5886 33.3873 59.9799 32.4789 59.9997 31.5252C60.0196 30.5714 59.6664 29.6475 59.0154 28.9502L58.8899 28.8079Z" fill="#75D0C8"/>
</svg>
