<svg width="16" height="14" viewBox="0 0 16 14" fill="none" xmlns="http://www.w3.org/2000/svg">
<path d="M6.088 13.616C3.4176 13.616 1.307 13.1494 0.297234 12.3362L0.277581 12.3203L0.259759 12.3025C0.0198906 12.0625 -0.0587227 11.7477 0.0443046 11.4389L0.053704 11.4132C0.178704 11.1006 0.484978 10.8902 0.816887 10.8882C1.49999 10.8764 2.09765 10.7949 2.64001 10.6369C1.77489 10.2345 1.17394 9.53786 0.816399 8.52956C0.69616 8.21511 0.79992 7.86647 1.07702 7.65859C1.14538 7.6072 1.22265 7.56838 1.30444 7.54238C0.823723 6.98745 0.468621 6.35598 0.269768 5.68813L0.263543 5.66738L0.25927 5.64614C0.191766 5.30837 0.342766 4.96108 0.6195 4.81154C0.735589 4.74489 0.861687 4.71035 0.988274 4.70742C0.851799 4.41347 0.752556 4.11171 0.693718 3.80812C0.530388 2.96682 0.665154 2.12343 1.09411 1.30141L1.19335 1.10292C1.27282 0.94411 1.42468 0.832538 1.59972 0.804096C1.77477 0.775775 1.95422 0.833637 2.07958 0.959003L2.26037 1.14003C3.68859 2.63735 4.96789 3.3478 7.17968 3.83388C7.27843 2.98488 7.6455 2.1957 8.23766 1.5746C8.94237 0.83559 9.88341 0.420917 10.8874 0.406757H10.894C11.6266 0.406757 12.5353 0.82497 13.0848 1.11989C13.5563 0.965595 14.1243 0.726703 14.7136 0.474139C14.9894 0.344745 15.3293 0.403949 15.5461 0.620746C15.7587 0.83327 15.8176 1.13295 15.7048 1.42421C15.662 1.54348 15.6134 1.66054 15.5593 1.77504C15.64 1.81203 15.7139 1.8622 15.7762 1.92458C15.9648 2.11318 16.0434 2.40834 15.9764 2.67665L15.9692 2.70217C15.7434 3.42995 15.3096 4.02272 14.7358 4.39479C14.64 9.49745 10.7975 13.616 6.088 13.616ZM1.19701 11.8136C2.14855 12.3519 3.96191 12.6776 6.088 12.6776C8.13207 12.6776 10.061 11.8001 11.5194 10.2066C12.9897 8.59999 13.7994 6.46657 13.7994 4.19924V4.17372C13.7994 3.9684 13.9125 3.78102 14.0943 3.68459C14.4634 3.48915 14.7622 3.15627 14.9565 2.73061C14.7561 2.76223 14.5524 2.68178 14.4275 2.51406C14.2823 2.31911 14.2808 2.0558 14.4235 1.85915C14.5005 1.75295 14.5703 1.64247 14.6326 1.52822C14.1236 1.74196 13.6404 1.93361 13.2208 2.06093C13.0683 2.10707 12.8984 2.08901 12.7591 2.01125C12.0122 1.59511 11.3165 1.34633 10.8971 1.34511C9.34936 1.36879 8.09093 2.69435 8.09093 4.30153C8.09093 4.46767 8.0172 4.62343 7.88891 4.72902C7.76049 4.83449 7.5935 4.87673 7.43041 4.8445C4.88012 4.34206 3.36889 3.58864 1.79736 2.00942C1.57214 2.54909 1.51061 3.09267 1.61474 3.62941C1.72033 4.17311 2.00121 4.71791 2.42712 5.20485C2.58898 5.38967 2.61047 5.65407 2.48058 5.86269C2.35119 6.07058 2.10522 6.16774 1.86877 6.10439C1.68395 6.05483 1.51403 5.98976 1.3529 5.90615C1.68115 6.61916 2.24572 7.27858 2.95544 7.76491C3.16113 7.9059 3.24706 8.16872 3.16454 8.40407C3.0819 8.63979 2.85107 8.79152 2.60155 8.77297C2.3297 8.75283 2.08886 8.70119 1.86718 8.61415C2.26513 9.42458 2.90099 9.8705 3.88061 10.0409C4.11388 10.0816 4.29552 10.2658 4.33263 10.4993C4.36987 10.7328 4.25426 10.9643 4.04516 11.0752C3.2102 11.5178 2.2976 11.7554 1.19701 11.8136Z" fill="#2B2B2B"/>
</svg>
